<?xml version="1.0" encoding="utf-8"?>
<!-- Generator: Adobe Illustrator 24.2.3, SVG Export Plug-In . SVG Version: 6.00 Build 0)  -->
<svg version="1.1" id="图层_1" xmlns="http://www.w3.org/2000/svg" xmlns:xlink="http://www.w3.org/1999/xlink" x="0px" y="0px"
	 viewBox="0 0 256 256" style="enable-background:new 0 0 256 256;" xml:space="preserve">
<g>
	<g>
		<path d="M59.1,193c0,6.6,5.4,11.9,12,11.9h13.7v33.8c0,8.6,6.9,15.6,15.3,15.6c8.5,0,15.3-7,15.3-15.6v-33.9h23.9v33.8
			c0,8.6,6.9,15.6,15.3,15.6c8.5,0,15.3-7,15.3-15.6v-33.8h13.7c6.6,0,12-5.4,12-11.9V81.9H59.1V193z M159.5,24.3l12.6-18.3
			c0.7-1.1,0.6-2.5-0.4-3.2c-1-0.7-2.4-0.3-3.1,0.7l-13.1,19c-8.6-3.4-18.2-5.3-28.3-5.3c-10.1,0-19.7,1.9-28.3,5.3l-13.1-19
			c-0.7-1.1-2.1-1.4-3.1-0.7c-1,0.7-1.2,2.1-0.4,3.2l12.6,18.3c-20.1,9.3-34.1,27-35.9,47.7h136.6C193.6,51.3,179.5,33.7,159.5,24.3
			L159.5,24.3z M98.3,53.1c-4.2,0-7.6-3.4-7.6-7.6c0-4.2,3.4-7.6,7.6-7.6c4.2,0,7.6,3.4,7.6,7.6C105.8,49.8,102.5,53.1,98.3,53.1
			L98.3,53.1z M156.9,53.1c-4.2,0-7.6-3.4-7.6-7.6c0-4.2,3.4-7.6,7.6-7.6c4.2,0,7.6,3.4,7.6,7.6C164.4,49.8,161,53.1,156.9,53.1
			L156.9,53.1z M219.7,81.4c-8.5,0-15.3,7-15.3,15.6v60.8c0,8.6,6.9,15.6,15.3,15.6c8.5,0,15.3-7,15.3-15.6V97
			C235,88.4,228.2,81.4,219.7,81.4L219.7,81.4z M34.6,81.4c-8.5,0-15.3,7-15.3,15.6v60.8c0,8.6,6.9,15.6,15.3,15.6
			c8.5,0,15.3-7,15.3-15.6V97C49.9,88.4,43,81.4,34.6,81.4L34.6,81.4z M34.6,81.4"/>
	</g>
</g>
</svg>
