<?xml version="1.0" encoding="utf-8"?>
<!-- Generator: Adobe Illustrator 24.2.3, SVG Export Plug-In . SVG Version: 6.00 Build 0)  -->
<svg version="1.1" id="图层_1" xmlns="http://www.w3.org/2000/svg" xmlns:xlink="http://www.w3.org/1999/xlink" x="0px" y="0px"
	 viewBox="0 0 716.8 716.8" style="enable-background:new 0 0 716.8 716.8;" xml:space="preserve">
<g>
	<path d="M416,230.4H300.8c-14.2,0-25.6,11.4-25.6,25.6v435.2c0,14.2,11.4,25.6,25.6,25.6H416c14.2,0,25.6-11.4,25.6-25.6V256
		C441.6,241.8,430.2,230.4,416,230.4L416,230.4z M662.4,0H547.2c-14.2,0-25.6,11.4-25.6,25.6v665.6c0,14.2,11.4,25.6,25.6,25.6
		h115.2c14.2,0,25.6-11.4,25.6-25.6V25.6C688,11.4,676.6,0,662.4,0L662.4,0z M169.6,460.8H54.4c-14.2,0-25.6,11.4-25.6,25.6v204.8
		c0,14.2,11.4,25.6,25.6,25.6h115.2c14.2,0,25.6-11.4,25.6-25.6V486.4C195.2,472.2,183.8,460.8,169.6,460.8L169.6,460.8z
		 M169.6,460.8"/>
</g>
</svg>
