<?xml version="1.0" encoding="utf-8"?>
<!-- Generator: Adobe Illustrator 24.2.3, SVG Export Plug-In . SVG Version: 6.00 Build 0)  -->
<svg version="1.1" id="图层_1" xmlns="http://www.w3.org/2000/svg" xmlns:xlink="http://www.w3.org/1999/xlink" x="0px" y="0px"
	 viewBox="0 0 137.6 141.4" style="enable-background:new 0 0 137.6 141.4;" xml:space="preserve">
<path d="M57.9,0l22.2,0C87,0,92.6,5.6,92.6,12.5l0,3.6c4.3,1.8,8.4,4.1,12.1,6.8l3-1.7c6-3.4,13.6-1.4,17.1,4.6L135.9,45
	c3.3,5.7,1.6,13-3.9,16.7l-0.7,0.4l-3,1.7c0.5,4.7,0.4,9.5-0.2,14.3l2.1,1.2c5.7,3.3,7.9,10.5,4.9,16.4l-0.3,0.6l-10.4,18
	c-3.3,5.7-10.5,7.9-16.4,4.9l-0.6-0.3l-2.9-1.7c-3.6,2.6-7.5,4.8-11.6,6.5v5c0,6.6-5.1,12.1-11.7,12.5l-0.8,0l-22.2,0
	c-6.9,0-12.5-5.6-12.5-12.5l0-6c-3.4-1.6-6.7-3.6-9.8-5.8l-5.3,3.1c-6,3.4-13.6,1.4-17-4.6L2.3,96.4c-3.3-5.7-1.6-13,3.9-16.7
	l0.7-0.4l5.4-3.1c-0.4-4-0.4-8,0-12l-6-3.5c-5.7-3.3-7.9-10.5-4.9-16.4l0.4-0.6l10.4-18c3.3-5.7,10.5-7.9,16.4-4.9l0.6,0.3l5.2,3
	c3.4-2.7,7.1-4.9,11-6.8v-4.8c0-6.6,5.1-12.1,11.7-12.5L57.9,0L57.9,0z M57.9,12.5l0,12.7l-7.2,3.4c-3.1,1.4-6,3.2-8.7,5.3l-6.6,5.2
	L23.2,32l-0.3-0.2l-10.4,18l13,7.5l-0.8,8c-0.3,3.1-0.3,6.3,0,9.4l0.9,8.1l-12.5,7.2l11.1,19.2l12.4-7.1l6.6,4.8
	c2.4,1.8,5,3.3,7.7,4.6l7.2,3.4l0,13.9l22.2,0l0-13.3l7.7-3.2c3.2-1.3,6.3-3.1,9.1-5.1l6.6-4.7l9.9,5.7l10.4-18l-9.4-5.4l1.2-8.3
	c0.5-3.7,0.6-7.5,0.2-11.2l-0.9-8.1l10.1-5.8l-11.1-19.2l-10,5.8L97.4,33c-3-2.2-6.2-4-9.6-5.4l-7.7-3.2l0-11.9L57.9,12.5L57.9,12.5
	z M82.8,48.4c12,6.9,16.1,22.2,9.2,34.2c-6.9,11.9-22.1,16.1-34.1,9.2c0,0,0,0,0,0c-12-6.9-16-22.2-9.2-34.2
	C55.6,45.6,70.8,41.5,82.8,48.4C82.8,48.4,82.8,48.4,82.8,48.4z M59.5,63.8c-3.5,6-1.4,13.6,4.6,17.1c6,3.4,13.6,1.4,17-4.5
	c0,0,0,0,0,0c3.3-5.7,1.6-13.1-4-16.7l-0.6-0.4l-0.6-0.3C70,55.9,62.8,58,59.5,63.8L59.5,63.8z"/>
</svg>
