<?xml version="1.0" encoding="UTF-8"?>
<svg width="44px" height="44px" viewBox="0 0 44 44" version="1.1" xmlns="http://www.w3.org/2000/svg" xmlns:xlink="http://www.w3.org/1999/xlink">
    <title>【经过】球</title>
    <defs>
        <polygon id="path-1" points="0 0 24 0 24 24 0 24"></polygon>
    </defs>
    <g id="页面-1" stroke="none" stroke-width="1" fill="none" fill-rule="evenodd">
        <g id="新增侧边悬浮样式" transform="translate(-770.000000, -69.000000)">
            <g id="【经过】球" transform="translate(770.000000, 69.000000)">
                <rect id="矩形" fill="#212121" opacity="0.800000012" x="0" y="0" width="44" height="44" rx="22"></rect>
                <rect id="矩形" stroke="#FFFFFF" stroke-width="2" opacity="0.9" x="1" y="1" width="42" height="42" rx="21"></rect>
                <g id="编组" transform="translate(10.000000, 10.000000)">
                    <mask id="mask-2" fill="white">
                        <use xlink:href="#path-1"></use>
                    </mask>
                    <g id="Clip-2"></g>
                    <path d="M10.3798455,10.8274742 C9.7779697,11.8444414 10.135606,13.1435787 11.1793808,13.7313484 C12.2189686,14.3169109 13.5495503,13.9715835 14.1512517,12.9598795 C14.1521239,12.9583515 14.1529962,12.9568235 14.1538685,12.9552955 C14.7309715,11.9804331 14.428289,10.7368131 13.4633687,10.117295 L13.3543332,10.0514214 L13.2416341,9.99267835 C12.2111181,9.48843921 10.9553783,9.85481903 10.3798455,10.8274742 Z M14.4453857,8.21425919 C16.5308418,9.38810072 17.2457656,11.9836589 16.0430607,14.0150465 C14.8424493,16.0435479 12.1791925,16.7406543 10.0947832,15.5720758 C10.0926897,15.5708874 10.0905962,15.569699 10.0883283,15.5685105 C8.00322112,14.3944992 7.28864625,11.7991108 8.49135112,9.76772318 C9.69231143,7.73939156 12.3555683,7.04245498 14.4398031,8.21120319 C14.4417222,8.21222186 14.4434667,8.21324052 14.4453857,8.21425919 L14.4453857,8.21425919 Z M10.1050761,2.12213368 L10.1071696,4.27966596 L8.85404672,4.85334409 C8.31759219,5.09884233 7.81096977,5.40172536 7.34429795,5.75605098 L6.18555618,6.63617746 L4.05352017,5.43771819 L3.99908966,5.40800713 L2.18177363,8.47113252 L4.44971146,9.74514277 L4.3087504,11.1098142 C4.25414544,11.63952 4.25641337,12.174319 4.31380965,12.7041946 L4.46349354,14.078034 L2.29011128,15.2961874 L4.22954703,18.555236 L6.38775156,17.3476088 L7.53253679,18.1632198 C7.95402431,18.463726 8.40447166,18.7238251 8.87724947,18.9399518 L10.1289767,19.5122717 L10.1333381,21.8721788 L14.0034868,21.8779512 L14.0012188,19.6177035 L15.346106,19.0730574 C15.9101247,18.8447067 16.4455324,18.5542174 16.941513,18.2071922 L18.0857749,17.4070309 L19.8085353,18.3747626 L21.6242812,15.3109581 L19.9843877,14.388557 L20.1879788,12.9731221 C20.2788707,12.3398521 20.2889892,11.6989421 20.2185087,11.0631254 L20.065859,9.68860687 L21.8191494,8.70389745 L19.8790159,5.44484884 L18.1344483,6.42310672 L16.9887908,5.61038189 C16.4718754,5.24349275 15.9122181,4.93738394 15.3213331,4.69850702 L13.9794117,4.15657729 L13.9750503,2.12773634 L10.1050761,2.12213368 Z M10.1080419,-8.48887427e-05 L13.9787139,0.00551776827 C15.1805465,0.0075550981 16.1541897,0.955422799 16.1557598,2.1250199 L16.1573299,2.73893528 C16.907145,3.04181832 17.6173585,3.43009943 18.2733159,3.89562929 L18.7916269,3.60547957 C19.8331337,3.02212413 21.163541,3.36897953 21.7661146,4.38085334 L23.7060737,7.64058106 C24.2838745,8.61136872 23.985379,9.85193281 23.0249945,10.4722997 L22.9065384,10.543097 L22.3861339,10.835284 C22.4754558,11.6388408 22.4646394,12.455131 22.347579,13.2666674 L22.7153338,13.4739657 C23.7154944,14.0355896 24.0921465,15.2586666 23.5745333,16.26324 L23.5141713,16.3727465 L21.6970297,19.4358719 C21.1197523,20.4092062 19.8629658,20.7757558 18.8308797,20.272026 L18.7174828,20.2126039 L18.2150473,19.9297546 C17.5835139,20.3718551 16.9017369,20.7421398 16.1834984,21.0333082 L16.1834984,21.875065 C16.1848941,22.9964453 15.289582,23.9256375 14.1393886,23.9959253 L14.000521,24 L10.129849,23.9943973 C8.92819084,23.9925298 7.95472214,23.0450016 7.95262866,21.8757441 L7.95053518,20.8606445 C7.3505784,20.5864539 6.77940698,20.256746 6.24452256,19.8759351 L5.31693599,20.3951147 C4.27508025,20.9783003 2.94484748,20.6312751 2.34244831,19.6190618 L0.402314725,16.3601829 C-0.175834964,15.3892255 0.122660545,14.1479823 1.0833939,13.5276154 L1.20202449,13.4569879 L2.14548663,12.9284706 C2.07273816,12.2564913 2.06924903,11.5767023 2.13885727,10.8982715 L1.09141891,10.3089738 C0.0910838722,9.74734988 -0.285917177,8.52427287 0.231521561,7.51969949 L0.292581425,7.41002324 L2.10989745,4.34689785 C2.68717486,3.3737333 3.94378687,3.00701393 4.97604749,3.51074373 L5.08874656,3.57016585 L6.00167876,4.08306363 C6.59675075,3.6316253 7.24154292,3.24606063 7.92436667,2.93350028 L7.92436667,2.12569901 C7.92244764,1.00397916 8.81793417,0.0744474273 9.96847647,0.00415954839 L10.1071696,-8.48887427e-05 L10.1080419,-8.48887427e-05 Z" id="Fill-1" fill="#FFFFFF" mask="url(#mask-2)"></path>
                </g>
            </g>
        </g>
    </g>
</svg>