<?xml version="1.0" encoding="utf-8"?>
<!-- Generator: Adobe Illustrator 24.2.3, SVG Export Plug-In . SVG Version: 6.00 Build 0)  -->
<svg version="1.1" id="图层_1" xmlns="http://www.w3.org/2000/svg" xmlns:xlink="http://www.w3.org/1999/xlink" x="0px" y="0px"
	 viewBox="0 0 200 200" style="enable-background:new 0 0 200 200;" xml:space="preserve">
<style type="text/css">
	.st0{display:none;fill-rule:evenodd;clip-rule:evenodd;fill:#FFFFFF;}
	.st1{fill-rule:evenodd;clip-rule:evenodd;fill:#FFFFFF;}
</style>
<g>
	<path class="st0" d="M133.6,56.5c0,0,3.9,29.4-1.7,54.9c-6.9,31-35,59.6-66.6,57.6c-3.5,13.4,0.2,22.2,0.2,22.2
		c4.9,3.2,11.4,5.9,19.8,7.5c36,6.9,70.3-15.1,77.3-45C169.5,123.7,159.6,101.5,133.6,56.5z"/>
	<path class="st1" d="M99.9,0c0,0,6.6,33.1-24.3,65.2C44.8,97.3,34,110.6,35.4,142.6c1.4,31.9,30.1,48.7,30.1,48.7
		s-10-24.1,18.8-53.5c28.8-29.5,40.6-56.1,37.8-78C119.4,37.9,111,13.9,99.9,0z"/>
</g>
<path class="st0" d="M65.5,106.6c0,0,3.1,15.5-11.3,30.4c-14.4,15-19.4,21.2-18.8,36.1c0.6,14.9,14,22.7,14,22.7s-4.7-11.2,8.8-25
	c13.4-13.8,19-26.2,17.7-36.4C74.5,124.3,70.6,113.1,65.5,106.6z"/>
<path class="st1" d="M133.6,56.5c0,0,3.9,29.4-1.7,54.9c-6.5,29.2-31.8,56.2-61,57.6c-3.4,11.9-0.6,19.6-0.4,20.2l2.3,5.8
	c3.6,1.5,7.8,2.8,12.6,3.7c36,6.9,70.3-15.1,77.3-45C169.5,123.7,159.6,101.5,133.6,56.5z"/>
</svg>
