<?xml version="1.0" encoding="UTF-8"?>
<svg width="16px" height="16px" viewBox="0 0 16 16" version="1.1" xmlns="http://www.w3.org/2000/svg" xmlns:xlink="http://www.w3.org/1999/xlink">
    <title>成员</title>
    <defs>
        <polygon id="path-1" points="0 0 16 0 16 16.0019695 0 16.0019695"></polygon>
    </defs>
    <g id="页面-1" stroke="none" stroke-width="1" fill="none" fill-rule="evenodd">
        <g id="功能菜单" transform="translate(-923.000000, -24.000000)">
            <g id="【黑】功能弹窗" transform="translate(575.000000, 10.000000)">
                <g id="画面备份-4" transform="translate(338.000000, 3.000000)">
                    <g id="成员" transform="translate(10.000000, 11.000000)">
                        <mask id="mask-2" fill="white">
                            <use xlink:href="#path-1"></use>
                        </mask>
                        <g id="Clip-2"></g>
                        <g id="编组-12" mask="url(#mask-2)" fill="#FFFFFF">
                            <g transform="translate(0.998461, 1.000000)">
                                <path d="M12.4635142,10.2886083 C12.0189946,9.84411052 11.5062253,9.48881858 10.9515,9.23161363 C11.7442897,8.5893669 12.2499715,7.60937189 12.2499715,6.51031186 C12.2499715,4.57140923 10.6330235,2.9806017 8.69401149,3.01032967 C6.78474934,3.04016702 5.24650717,4.59584348 5.24650717,6.51031186 C5.24650717,7.60937189 5.75407021,8.5893669 6.54506618,9.23161363 C5.99025338,9.48881858 5.47925598,9.84231678 5.033052,10.2886083 C4.07755687,11.2458096 3.53505963,12.509347 3.49998219,13.8567745 C3.49830981,13.9355678 3.56128762,14.0003394 3.64005909,14.0003394 L4.62007598,14.0003394 C4.69528185,14.0003394 4.75832528,13.940774 4.76005339,13.86559 C4.79328135,12.8505296 5.20455113,11.9003501 5.92727558,11.1793318 C6.68152174,10.4250638 7.68426663,10.010294 8.74998933,10.010294 C9.81579953,10.010294 10.8185226,10.4250638 11.5727906,11.1793318 C12.2937213,11.9003501 12.7049911,12.8505296 12.7400128,13.86559 C12.741719,13.940774 12.8047843,14.0003394 12.8799902,14.0003394 L13.8600071,14.0003394 C13.9387785,14.0003394 14.0017564,13.9355678 14,13.8567745 C13.9650065,12.509347 13.4225093,11.2458096 12.4635142,10.2886083 Z M8.74998933,8.75036608 C8.15151425,8.75036608 7.58806087,8.51759539 7.16629114,8.09411942 C6.73749958,7.66532786 6.50302265,7.09487451 6.51004448,6.48758385 C6.51525071,5.91363052 6.74449954,5.35890522 7.14526938,4.94763544 C7.56524536,4.51713763 8.12705813,4.27736698 8.72726132,4.27036701 C9.32053018,4.26516079 9.89627725,4.49611586 10.3197751,4.91088563 C10.7537729,5.33608971 10.9917279,5.90483682 10.9917279,6.51031186 C10.9917279,7.10889631 10.7589791,7.67062158 10.3354813,8.09411942 C9.91200529,8.51759539 9.34855191,8.75036608 8.74998933,8.75036608 Z" id="Fill-1"></path>
                                <path d="M4.3663054,6.97233138 C4.35057735,6.82008216 4.34176177,6.66608294 4.34176177,6.51031186 C4.34176177,6.23210703 4.36801164,5.96088028 4.41705514,5.69658788 C4.42926133,5.63361007 4.39603337,5.56883853 4.33826179,5.54261054 C4.10028487,5.43588295 3.88153599,5.28883995 3.69253695,5.10331902 C3.24101737,4.66240877 2.99783424,4.06563993 3.01526852,3.43391502 C3.03106219,2.87208038 3.25683292,2.33837684 3.65058091,1.93590077 C4.08278496,1.49310927 4.66382576,1.25163238 5.28152886,1.25863234 C5.83977602,1.26386044 6.37879515,1.47908747 6.78654308,1.86062928 C6.92479237,1.99017237 7.04374802,2.13362789 7.14354126,2.28760523 C7.17849733,2.34187683 7.24676886,2.36460484 7.30624668,2.34367057 C7.61428886,2.23685549 7.93976533,2.16167149 8.27403551,2.12662792 C8.37205688,2.1161061 8.42801285,2.01110664 8.38426307,1.92360708 C7.81551596,0.798406557 6.6535,0.0214323869 5.30957247,0.000410618921 C3.36876672,-0.0293392297 1.7518187,1.5613808 1.7518187,3.49859906 C1.7518187,4.59763722 2.257588,5.57765411 3.05029022,6.21987896 C2.49377118,6.4770839 1.98106754,6.83237585 1.5365698,7.27687358 C0.577574679,8.23407496 0.0350774402,9.49761228 0,10.8468554 C-0.00167237277,10.9255394 0.0613054317,10.9903109 0.140076906,10.9903109 L1.12180003,10.9903109 C1.1970934,10.9903109 1.26007121,10.9308331 1.26177745,10.8555616 C1.2950929,9.84061054 1.70627518,8.89032162 2.42908713,8.16930342 C2.94356264,7.65482791 3.57358131,7.29780785 4.26128406,7.12460248 C4.32955558,7.10710257 4.3750116,7.04233103 4.3663054,6.97233138 Z" id="Fill-3"></path>
                            </g>
                        </g>
                    </g>
                </g>
            </g>
        </g>
    </g>
</svg>