<?xml version="1.0" encoding="UTF-8"?>
<svg width="32px" height="27px" viewBox="0 0 32 27" version="1.1" xmlns="http://www.w3.org/2000/svg" xmlns:xlink="http://www.w3.org/1999/xlink">
    <title>2格信号</title>
    <defs>
        <polygon id="path-1" points="0 0 32 0 32 27 0 27"></polygon>
    </defs>
    <g id="页面-1" stroke="none" stroke-width="1" fill="none" fill-rule="evenodd">
        <g id="【手机端】2个信号" transform="translate(-929.000000, -28.000000)">
            <g id="编组-3备份-6" transform="translate(907.000000, 10.000000)">
                <g id="2格信号" transform="translate(22.000000, 18.000000)">
                    <mask id="mask-2" fill="white">
                        <use xlink:href="#path-1"></use>
                    </mask>
                    <g id="Clip-2"></g>
                    <path d="M-1.36424205e-12,19.1991232 C-1.36424205e-12,18.5362094 0.520085219,17.9982524 1.16439711,17.9982524 L4.65463144,17.9982524 C5.29769691,17.9982524 5.81921238,18.5345433 5.81921238,19.1991232 L5.81921238,25.7974623 C5.81921238,26.4605665 5.29769691,26.9983337 4.65463144,26.9983337 L1.16439711,26.9983337 C0.85546717,26.9986663 0.559001528,26.8724242 0.340645488,26.6470735 C0.122104792,26.4218656 -0.000368479729,26.1161617 -1.36424205e-12,25.7974623 L-1.36424205e-12,19.1991232 Z" id="Fill-1" fill="#FA5251" mask="url(#mask-2)"></path>
                    <path d="M8.72805487,13.1985775 C8.72805487,12.5371394 9.24795617,11.9994205 9.89083698,11.9994205 L13.3827332,11.9994205 C14.0239521,11.9994205 14.5456522,12.5356637 14.5456522,13.1985775 L14.5456522,25.7974623 C14.5456522,26.4605665 14.0255679,26.9983331 13.3810713,26.9983331 L9.89083698,26.9983331 C9.58209169,26.9983331 9.28618002,26.8716625 9.06800864,26.6465022 C8.84997575,26.4212943 8.72754864,26.1157809 8.72805487,25.7974623 L8.72805487,13.1985775 Z" id="路径" fill="#ACADAE" opacity="0.5" mask="url(#mask-2)"></path>
                    <path d="M17.454357,7.19969797 C17.454357,6.53683178 17.974396,6.00054089 18.6188926,6.00054089 L22.1091731,6.00054089 C22.7520077,6.00054089 23.2735232,6.53683178 23.2735232,7.19969797 L23.2735232,25.7991284 C23.2735232,26.4620422 22.7520077,27 22.1091731,27 L18.6188926,27 C18.3098242,27.00038 18.0135432,26.8738999 17.7950025,26.6487396 C17.5766003,26.4233413 17.4539885,26.117685 17.454357,25.7991284 L17.454357,7.19969797 Z" id="路径" fill="#ACADAE" opacity="0.5" mask="url(#mask-2)"></path>
                    <path d="M26.1824126,1.19919992 C26.1824126,0.537761804 26.7023132,-4.76025975e-06 27.3453325,-4.76025975e-06 L30.837044,-4.76025975e-06 C31.4784938,-4.76025975e-06 32.0000092,0.536286123 32.0000092,1.2006756 L32.0000092,25.7974623 C32.0000092,26.4605665 31.4799248,26.9983331 30.837044,26.9983331 L27.3453325,26.9983331 C27.0366333,26.9983331 26.740537,26.8716625 26.5225041,26.6465022 C26.3043327,26.4212943 26.1820441,26.1157809 26.1824126,25.7974623 L26.1824126,1.19919992 Z" id="路径" fill="#ACADAE" opacity="0.5" mask="url(#mask-2)"></path>
                </g>
            </g>
        </g>
    </g>
</svg>