<?xml version="1.0" encoding="UTF-8"?>
<svg width="16px" height="16px" viewBox="0 0 16 16" version="1.1" xmlns="http://www.w3.org/2000/svg" xmlns:xlink="http://www.w3.org/1999/xlink">
    <title>比例</title>
    <defs>
        <polygon id="path-1" points="0 0 16 0 16 16.0013423 0 16.0013423"></polygon>
        <polygon id="path-3" points="0 0 16 0 16 16.0013423 0 16.0013423"></polygon>
    </defs>
    <g id="页面-1" stroke="none" stroke-width="1" fill="none" fill-rule="evenodd">
        <g id="分辨率选择" transform="translate(-913.000000, -185.000000)">
            <g id="【黑】画面弹窗" transform="translate(900.000000, 57.000000)">
                <g id="控制备份-4" transform="translate(3.000000, 117.000000)">
                    <g id="比例" transform="translate(10.000000, 11.000000)">
                        <mask id="mask-2" fill="white">
                            <use xlink:href="#path-1"></use>
                        </mask>
                        <g id="Clip-2"></g>
                        <g mask="url(#mask-2)">
                            <mask id="mask-4" fill="white">
                                <use xlink:href="#path-3"></use>
                            </mask>
                            <g id="Clip-2"></g>
                            <g id="bili" mask="url(#mask-4)" fill="#FFFFFF">
                                <g transform="translate(0.500000, 1.500000)">
                                    <path d="M0,13 L9.23078093,13 L9.23078093,5.7352783 L0,5.7352783 L0,13 Z M1.53847757,11.4706238 L7.69228646,11.4706238 L7.69228646,7.2647217 L1.53847757,7.2647217 L1.53847757,11.4706238 Z" id="Fill-1"></path>
                                    <polygon id="Fill-2" points="15 0 0 0 0 4.42096645 1.53847757 4.42096645 1.53847757 1.52944339 13.4615731 1.52944339 13.4615731 11.4706238 10.5529384 11.4706238 10.5529384 13 15 13"></polygon>
                                </g>
                            </g>
                        </g>
                    </g>
                </g>
            </g>
        </g>
    </g>
</svg>