<?xml version="1.0" encoding="UTF-8"?>
<svg width="44px" height="44px" viewBox="0 0 44 44" version="1.1" xmlns="http://www.w3.org/2000/svg" xmlns:xlink="http://www.w3.org/1999/xlink">
    <title>【经过】球2</title>
    <defs>
        <polygon id="path-1" points="0 0 24 0 24 24 0 24"></polygon>
    </defs>
    <g id="页面-1" stroke="none" stroke-width="1" fill="none" fill-rule="evenodd">
        <g id="新增侧边悬浮样式" transform="translate(-696.000000, -69.000000)">
            <g id="【经过】球2" transform="translate(696.000000, 69.000000)">
                <rect id="矩形" fill="#212121" opacity="0.800000012" x="0" y="0" width="44" height="44" rx="22"></rect>
                <rect id="矩形" stroke="#FFFFFF" stroke-width="2" opacity="0.9" x="1" y="1" width="42" height="42" rx="21"></rect>
                <g id="点量" transform="translate(10.000000, 7.000000)">
                    <mask id="mask-2" fill="white">
                        <use xlink:href="#path-1"></use>
                    </mask>
                    <g id="Clip-2"></g>
                    <path d="M7.5667482,22.7748034 C7.5727537,22.7958227 7.57875919,22.815555 7.58390676,22.8331425 C7.57833023,22.815555 7.5727537,22.7958227 7.5667482,22.7748034 M7.51012498,22.5401602 C7.52728353,22.6238082 7.54487105,22.6958741 7.56117167,22.7546421 C7.54487105,22.6958741 7.52728353,22.6242371 7.51012498,22.5401602 M7.48481612,22.4046077 C7.49082161,22.4406406 7.49725607,22.4753867 7.50369052,22.507988 C7.49725607,22.4753867 7.49082161,22.4410696 7.48481612,22.4046077 M7.46165207,22.246749 C7.46679964,22.2875006 7.47237617,22.3269652 7.47838166,22.364714 C7.47237617,22.3269652 7.46679964,22.2875006 7.46165207,22.246749 M7.44063285,22.0537153 C7.44535145,22.1064778 7.45049901,22.1575245 7.45650451,22.2064264 C7.45049901,22.1575245 7.44535145,22.1064778 7.44063285,22.0537153 M7.42733497,21.8358017 C7.42990875,21.9044359 7.43376943,21.9704963 7.43891699,22.033554 C7.43376943,21.9704963 7.42990875,21.9044359 7.42733497,21.8358017 M7.42433222,21.6316149 C7.42390326,21.701536 7.42476119,21.7697413 7.42733497,21.8349438 C7.42476119,21.7697413 7.42390326,21.701536 7.42433222,21.6316149 M7.43033771,21.4102696 C7.42733497,21.4698956 7.42561911,21.5282346 7.42519015,21.5852868 C7.42561911,21.5282346 7.42733497,21.4703245 7.43033771,21.4102696 M7.44835419,21.1649023 C7.4423487,21.2283889 7.43720114,21.2901597 7.43376943,21.3506436 C7.43720114,21.2901597 7.4423487,21.2283889 7.44835419,21.1649023 M7.48395819,20.8693462 C7.47151824,20.9517073 7.46165207,21.0319235 7.4530728,21.1104239 C7.46165207,21.0319235 7.47151824,20.9517073 7.48395819,20.8693462 M7.53414695,20.5832274 C7.51527255,20.6775994 7.49897192,20.7698266 7.48524508,20.8594801 C7.49897192,20.7698266 7.51527255,20.6775994 7.53414695,20.5832274 M7.5976336,20.3082616 C7.57575644,20.3940544 7.55645307,20.4785602 7.53929452,20.5613502 C7.55645307,20.4785602 7.57575644,20.3940544 7.5976336,20.3082616 M15.792987,6.78431987 C15.792987,6.78431987 16.2661341,10.3104023 15.5896582,13.3762066 C14.7673345,17.1008993 11.3905315,20.5257462 7.60406805,20.2838107 C7.87646007,19.225128 8.51347131,17.9262256 9.88272376,16.5239429 C13.3375982,12.9862785 14.7553236,9.78706647 14.4224477,7.16481076 C14.0895717,4.54298402 13.0875123,1.66506589 11.7560087,-0.00017158552 C11.7560087,-0.00017158552 12.5470179,3.97503595 8.84248654,7.82498605 C5.13795517,11.6749362 3.84763206,13.2775449 4.01407001,17.1069048 C4.18050797,20.9358356 7.62380039,22.9485338 7.62380039,22.9485338 C7.62380039,22.9485338 7.62208453,22.9446731 7.61951075,22.9382386 C7.62165557,22.9438152 7.62380039,22.9485338 7.62380039,22.9485338 C8.21405458,23.3285957 8.98790527,23.6511765 10.0011178,23.845926 C14.3255018,24.6776869 18.4422674,22.0374147 19.2735993,18.4405532 C20.1053601,14.8436917 18.9205621,12.1824003 15.792987,6.78431987" id="Fill-1" fill="#FFFFFF" mask="url(#mask-2)"></path>
                </g>
            </g>
        </g>
    </g>
</svg>