<?xml version="1.0" encoding="utf-8"?>
<!-- Generator: Adobe Illustrator 24.2.3, SVG Export Plug-In . SVG Version: 6.00 Build 0)  -->
<svg version="1.1" id="图层_1" xmlns="http://www.w3.org/2000/svg" xmlns:xlink="http://www.w3.org/1999/xlink" x="0px" y="0px"
	 viewBox="0 0 192 192" style="enable-background:new 0 0 192 192;" xml:space="preserve">
<style type="text/css">
	.stfull{fill:#FFFFFF;}
</style>
<path class="stfull" d="M18,132v42h45v18H18c-9.9,0-18-8.1-18-18v-42H18z M192,132v42c0,9.9-8.1,18-18,18h-45v-18h45v-42H192z M174,0
	c9.9,0,18,8.1,18,18v42h-18V18h-45V0H174z M63,0v18H18v42H0V18C0,8.1,8.1,0,18,0H63z M63,0"/>
</svg>
