<?xml version="1.0" encoding="utf-8"?>
<!-- Generator: Adobe Illustrator 24.2.3, SVG Export Plug-In . SVG Version: 6.00 Build 0)  -->
<svg version="1.1" id="图层_1" xmlns="http://www.w3.org/2000/svg" xmlns:xlink="http://www.w3.org/1999/xlink" x="0px" y="0px"
	 viewBox="0 0 192 192" style="enable-background:new 0 0 192 192;" xml:space="preserve">
<style type="text/css">
	.stexitfull{fill:#FFFFFF;}
</style>
<g>
	<path class="stexitfull" d="M114,60c9.9,0,18,8.1,18,18v96c0,9.9-8.1,18-18,18H18c-9.9,0-18-8.1-18-18V78C0,68,8.1,60,18,60H114z M114,78
		H18v96h96V78z M174,0c9.9,0,18,8.1,18,18v96c0,9.9-8.1,18-18,18h-30v-18h30V18H78v30H60V18C60,8,68.1,0,78,0H174z"/>
</g>
</svg>
