<?xml version="1.0" encoding="utf-8"?>
<!-- Generator: Adobe Illustrator 24.2.3, SVG Export Plug-In . SVG Version: 6.00 Build 0)  -->
<svg version="1.1" id="图层_1" xmlns="http://www.w3.org/2000/svg" xmlns:xlink="http://www.w3.org/1999/xlink" x="0px" y="0px"
	 viewBox="0 0 724.7 587.2" style="enable-background:new 0 0 724.7 587.2;" xml:space="preserve">
<g>
	<g>
		<g>
			<path d="M675.7,143.6c-15.8-69.5-56.5-102.8-87.9-118.4C554.4,8.5,524.9,8,521.7,8H203.1c-3.2,0-32.7,0.5-66.1,17.2
				c-31.4,15.7-72.1,48.9-87.9,118.4C28.2,235.3,7.4,362,8,438.1c0.3,39.1,9.1,71.1,26.2,95.1c14.9,20.8,43.9,45.8,97.4,46h0.6
				c38.5,0,70.6-15.7,93.1-45.5c20.9-27.7,27.1-59.5,28.8-71.9c2.3-16.6,10.2-27.5,25-34.4c8.2-3.7,17-5.8,26-6.2h114.6
				c8.5,0.5,16.8,2.4,24.6,5.7c15.5,6.8,23.9,17.9,26.2,34.9c1.7,12.4,7.9,44.2,28.8,71.9c22.5,29.8,54.6,45.5,93.1,45.5h0.6
				c53.6-0.2,82.6-25.1,97.4-46c17.1-24,25.9-55.9,26.2-95.1C717.3,362,696.5,235.3,675.7,143.6L675.7,143.6z M665.6,437.7
				c-0.2,28-6,50.7-16.7,65.7c-11.7,16.4-30,24.4-56,24.5h-0.4c-56.7,0-68.8-55.9-71.2-73.1c-4.8-34.5-24.8-61.1-56.5-74.9
				c-14.2-6.1-29.5-9.5-45-9.9H305.1c-15.5,0.4-30.8,3.8-45.1,10c-31.7,13.8-51.7,40.4-56.5,74.9C201.1,472,189,528,132.3,528h-0.4
				c-26-0.1-44.3-8.1-56-24.5c-10.7-15-16.5-37.7-16.7-65.7C58.7,366.1,79.5,241,99,155c21.1-93,100.1-95.7,104.2-95.8h318.4
				c4.1,0.1,83,2.7,104.2,95.7C645.3,240.9,666.1,366.1,665.6,437.7L665.6,437.7z M665.6,437.7"/>
			<path d="M593.1,587.2h-0.6c-41.1,0-75.5-16.8-99.5-48.7c-22-29.2-28.6-62.6-30.3-75.6c-2-14.2-8.6-23-21.5-28.7
				c-6.8-2.9-14.1-4.6-21.6-5H305.4c-7.9,0.4-15.6,2.3-22.9,5.5c-12.2,5.7-18.5,14.4-20.4,28.2c-1.8,13-8.3,46.4-30.3,75.6
				c-24,31.8-58.4,48.6-99.5,48.6h-0.6c-57-0.2-88-27-104-49.3C9.6,512.5,0.3,479,0,438.2C-0.6,361.4,20.3,234,41.3,141.8
				C57.8,69.2,100.5,34.4,133.4,18c35-17.5,66.2-18,69.7-18h318.6c3.4,0,34.6,0.5,69.7,18.1c32.9,16.4,75.6,51.2,92.1,123.8v0
				c21,92.2,41.9,219.6,41.3,296.4c-0.3,40.8-9.6,74.3-27.7,99.6C681,560.2,650,587,593.1,587.2z M305,413.2l115.2,0
				c9.4,0.5,18.6,2.6,27.3,6.3c18.2,7.9,28.3,21.4,31,41.2c1.6,11.8,7.5,42,27.3,68.2c20.9,27.7,50.9,42.3,86.7,42.3h0.6
				c50.1-0.2,77.1-23.3,90.9-42.6c16.1-22.6,24.5-53.1,24.7-90.5c0.6-75.5-20.1-201.4-40.9-292.7c-15.1-66.5-53.9-98.2-83.7-113
				C552.4,16.5,524.7,16,521.7,16H203.1c-3.1,0-30.7,0.5-62.5,16.3c-29.8,14.9-68.6,46.6-83.7,113C36.1,236.6,15.4,362.6,16,438.1
				c0.3,37.4,8.6,67.9,24.7,90.5c13.8,19.3,40.8,42.4,91,42.6h0.6c35.9,0,65.8-14.6,86.7-42.3c19.8-26.2,25.6-56.4,27.3-68.1
				c2.7-19.3,12.3-32.6,29.6-40.6l0.1,0c9.1-4.1,18.8-6.4,28.8-6.9L305,413.2z M132.3,536h-0.4c-28.8-0.1-49.2-9.2-62.5-27.9
				c-11.7-16.3-18-40.6-18.2-70.3c-0.5-72.3,20.4-198.2,40-284.6c11.6-51.2,40.4-76.1,62.5-88c23.7-12.7,45.2-13.9,49.3-14l0.2,0
				l318.5,0c3.6,0.1,89.3,2.8,111.8,102c19.6,86.5,40.5,212.4,40,284.6v0c-0.2,29.6-6.5,53.9-18.2,70.3
				c-13.3,18.6-33.8,27.8-62.5,27.9h-0.4c-26.7,0-48.4-11.7-62.7-33.8c-11.1-17.2-15.1-36.3-16.4-46.2c-4.4-31.6-22.7-56-51.8-68.6
				c-13.3-5.7-27.4-8.9-42-9.3H305.2c-14.5,0.4-28.7,3.6-42,9.3c-29,12.6-47.4,37-51.7,68.6c-1.4,9.9-5.4,29.1-16.4,46.3
				C180.7,524.3,159,536,132.3,536z M203.3,67.2c-2.5,0.1-21.4,1-42,12.1c-27.9,15-46.2,41-54.5,77.5
				c-19.4,85.5-40.1,209.9-39.6,280.9c0.2,26.3,5.5,47.5,15.2,61.1C92.5,513,108.7,519.9,132,520h0.3c21.3,0,37.9-8.9,49.2-26.5
				c9.4-14.6,12.8-31.2,14-39.8c5.1-37.3,26.9-66.1,61.2-81.1c15.3-6.6,31.4-10.2,48.1-10.6l0.2,0l114.9,0c16.6,0.5,32.7,4,48,10.6
				c34.3,15,56.1,43.8,61.2,81.1c1.2,8.6,4.6,25.2,14,39.8c11.3,17.6,27.9,26.5,49.2,26.5h0.4c23.2-0.1,39.4-7,49.5-21.2
				c9.7-13.6,15-34.8,15.2-61.1l0,0c0.5-71-20.2-195.4-39.6-281c-8.3-36.4-26.6-62.5-54.5-77.4c-21.2-11.4-40.6-12-42-12.1H203.3z"
				/>
		</g>
	</g>
	<g>
		<path d="M306.4,195.2H268v-38.4c0-14.1-11.5-25.6-25.6-25.6c-14.1,0-25.6,11.5-25.6,25.6v38.4h-38.4c-14.1,0-25.6,11.5-25.6,25.6
			c0,14.1,11.5,25.6,25.6,25.6h38.4v38.4c0,14.1,11.5,25.6,25.6,25.6c14.1,0,25.6-11.5,25.6-25.6v-38.4h38.4
			c14.1,0,25.6-11.5,25.6-25.6C332,206.7,320.5,195.2,306.4,195.2L306.4,195.2z M520.7,139.8c-10-10-26.2-10-36.2,0l-72.4,72.4
			c-10,10-10,26.2,0,36.2c10,10,26.2,10,36.2,0l72.4-72.4c4.8-4.8,7.5-11.3,7.5-18.1C528.2,151.1,525.5,144.6,520.7,139.8
			L520.7,139.8z M535.7,191.3l-72.4,72.4c-6.6,6.4-9.3,15.9-6.9,24.9c2.3,8.9,9.3,15.9,18.3,18.3c8.9,2.3,18.4-0.3,24.9-6.9
			l72.4-72.4c9.8-10,9.6-26-0.3-35.9C561.7,181.7,545.7,181.5,535.7,191.3L535.7,191.3z M535.7,191.3"/>
		<path d="M242.4,318.4c-18.5,0-33.6-15.1-33.6-33.6v-30.4h-30.4c-18.5,0-33.6-15.1-33.6-33.6c0-18.5,15.1-33.6,33.6-33.6h30.4
			v-30.4c0-18.5,15.1-33.6,33.6-33.6c18.5,0,33.6,15.1,33.6,33.6v30.4h30.4c18.5,0,33.6,15.1,33.6,33.6c0,18.5-15.1,33.6-33.6,33.6
			H276v30.4C276,303.3,260.9,318.4,242.4,318.4z M178.4,203.2c-9.7,0-17.6,7.9-17.6,17.6c0,9.7,7.9,17.6,17.6,17.6h46.4v46.4
			c0,9.7,7.9,17.6,17.6,17.6c9.7,0,17.6-7.9,17.6-17.6v-46.4h46.4c9.7,0,17.6-7.9,17.6-17.6c0-9.7-7.9-17.6-17.6-17.6H260v-46.4
			c0-9.7-7.9-17.6-17.6-17.6c-9.7,0-17.6,7.9-17.6,17.6v46.4H178.4z M481.1,315.7c-2.8,0-5.7-0.4-8.5-1.1c-11.7-3.1-20.9-12.3-24-24
			c-3.1-11.7,0.4-24.2,9-32.6l72.5-72.4c13.1-12.7,34.3-12.6,47.2,0.3c12.9,12.9,13.1,34.1,0.3,47.2l-0.1,0.1l-72.4,72.4
			C498.8,312.1,490,315.7,481.1,315.7z M541.3,197l-72.4,72.4c-4.5,4.4-6.4,11-4.8,17.1c1.6,6.1,6.4,10.9,12.5,12.5
			c6.1,1.6,12.7-0.2,17.1-4.8l0.1-0.1l72.4-72.4c6.6-6.9,6.5-17.9-0.2-24.7C559.2,190.5,548.1,190.4,541.3,197z M430.2,263.9
			C430.2,263.9,430.2,263.9,430.2,263.9c-9,0-17.4-3.5-23.8-9.8c-13.1-13.1-13.1-34.4,0-47.5l72.4-72.4c13.1-13.1,34.4-13.1,47.5,0
			c6.3,6.3,9.8,14.8,9.8,23.8c0,9-3.5,17.4-9.8,23.8l-72.4,72.4C447.6,260.4,439.2,263.9,430.2,263.9z M502.6,140.3
			c-4.5,0-9,1.7-12.4,5.1l-72.4,72.4c-6.9,6.9-6.9,18,0,24.9c3.3,3.3,7.7,5.2,12.4,5.2c4.7,0,9.1-1.8,12.4-5.2l72.4-72.4
			c3.3-3.3,5.2-7.7,5.2-12.5c0-4.7-1.8-9.1-5.2-12.4l0,0C511.6,142,507.1,140.3,502.6,140.3z"/>
	</g>
</g>
</svg>
