<?xml version="1.0" encoding="utf-8"?>
<!-- Generator: Adobe Illustrator 24.2.3, SVG Export Plug-In . SVG Version: 6.00 Build 0)  -->
<svg version="1.1" id="图层_1" xmlns="http://www.w3.org/2000/svg" xmlns:xlink="http://www.w3.org/1999/xlink" x="0px" y="0px"
	 viewBox="0 0 256 256" style="enable-background:new 0 0 256 256;" xml:space="preserve">
<style type="text/css">
	.st0i{clip-path:url(#SVGID_2_);}
</style>
<g>
	<g>
		<defs>
			<rect id="SVGID_1_" x="22.9" y="3.4" width="210.1" height="250.2"/>
		</defs>
		<clipPath id="SVGID_2_">
			<use xlink:href="#SVGID_1_"  style="overflow:visible;"/>
		</clipPath>
		<path class="st0i" d="M198.3,135.5c-0.1-20.5,9.2-35.9,27.9-47.3c-10.5-15-26.3-23.3-47.2-24.9c-19.8-1.6-41.4,11.5-49.3,11.5
			c-8.4,0-27.5-11-42.6-11C56,64.4,22.9,88.7,22.9,138.1c0,14.6,2.7,29.7,8,45.3c7.1,20.5,32.9,70.6,59.8,69.8c14-0.3,24-10,42.3-10
			c17.7,0,26.9,10,42.6,10c27.1-0.4,50.4-46,57.2-66.5C196.4,169.6,198.3,136.5,198.3,135.5L198.3,135.5z M198.3,135.5"/>
	</g>
	<path d="M166.8,43.9C182,25.9,180.6,9.4,180.2,3.5c-13.4,0.8-29,9.2-37.9,19.5c-9.8,11-15.5,24.7-14.3,40.1
		C142.6,64.2,155.9,56.7,166.8,43.9L166.8,43.9z M166.8,43.9"/>
</g>
</svg>
