<?xml version="1.0" encoding="UTF-8"?>
<svg width="16px" height="14px" viewBox="0 0 16 14" version="1.1" xmlns="http://www.w3.org/2000/svg" xmlns:xlink="http://www.w3.org/1999/xlink">
    <title>静音</title>
    <defs>
        <polygon id="path-1" points="0 0 16 0 16 14 0 14"></polygon>
    </defs>
    <g id="页面-1" stroke="none" stroke-width="1" fill="none" fill-rule="evenodd">
        <g id="经过悬浮窗" transform="translate(-983.000000, -19.000000)">
            <g id="编组-3备份-3" transform="translate(910.000000, 10.000000)">
                <g id="静音" transform="translate(73.000000, 9.000000)">
                    <mask id="mask-2" fill="white">
                        <use xlink:href="#path-1"></use>
                    </mask>
                    <g id="Clip-2"></g>
                    <path d="M9.73770006,1.05236401 L9.73770006,1.51902066 L8.38206697,2.91321767 L8.38206697,1.89725845 L5.60386509,4.90554232 L1.35564633,4.8325634 L1.35564633,9.48317263 L1.9936801,9.48279139 L0.770462111,10.7412694 C0.299502798,10.5094796 -0.000198582945,10.0201668 -1.33247803e-05,9.48317263 L-1.33247803e-05,4.8325634 C-1.33247803e-05,4.09446871 0.55924929,3.4842233 1.27571008,3.44070825 L1.36689937,3.43836639 L5.03086062,3.50113371 L7.95768197,0.332432356 C8.59666894,-0.360023273 9.73812371,0.101513966 9.73812371,1.05192831 L9.73770006,1.05236401 Z M11.8312939,3.96629267 C12.7640247,4.76045586 13.3029788,5.94159798 13.3008156,7.18697789 C13.3036143,8.65001472 12.5606758,10.0076133 11.3432299,10.7645518 L10.7150988,9.52363781 C11.4841973,9.01014393 11.9474516,8.13039388 11.9451746,7.18741359 C11.9451746,6.27327086 11.5203924,5.46323202 10.8661013,4.9589422 L11.8312939,3.96629267 Z M11.6175127,0.899925191 L12.5764035,1.8856853 L2.3511294,12.4014038 L1.39268867,11.4160794 L11.6175127,0.899925191 Z M13.6284695,2.11755677 C14.9873329,3.26169204 15.8418485,4.91970241 16,6.71852399 L16,7.93934159 C15.799749,10.2370613 14.4780338,12.2024817 12.6017427,13.2522618 L11.9758887,12.0151601 C13.6387164,11.0762917 14.6717714,9.28005703 14.6709241,7.3292051 C14.6724863,5.67928231 13.9317189,4.12159073 12.6645214,3.10979784 L13.6288932,2.11755677 L13.6284695,2.11755677 Z M9.73770006,6.11944326 L9.73770006,12.94831 C9.73770006,13.8987788 8.59666894,14.3597714 7.95725833,13.6676971 L5.05114256,10.9388026 L6.01053648,9.95219838 L8.38206697,12.1783279 L8.38206697,7.51418489 L9.73770006,6.11987896 L9.73770006,6.11944326 Z" id="Fill-1" fill="#FA5251" mask="url(#mask-2)"></path>
                </g>
            </g>
        </g>
    </g>
</svg>