<?xml version="1.0" encoding="UTF-8"?>
<svg width="14px" height="14px" viewBox="0 0 14 14" version="1.1" xmlns="http://www.w3.org/2000/svg" xmlns:xlink="http://www.w3.org/1999/xlink">
    <title>查看</title>
    <defs>
        <polygon id="path-1" points="0 0 14 0 14 14 0 14"></polygon>
        <polygon id="path-3" points="0 0 12 0 12 8.97377533 0 8.97377533"></polygon>
    </defs>
    <g id="页面-1" stroke="none" stroke-width="1" fill="none" fill-rule="evenodd">
        <g id="功能菜单" transform="translate(-1567.000000, -116.000000)">
            <g id="编组-5备份-3" transform="translate(1404.000000, 108.000000)">
                <g id="编组-9备份-4" transform="translate(155.000000, 4.000000)">
                    <g id="查看" transform="translate(8.000000, 4.000000)">
                        <mask id="mask-2" fill="white">
                            <use xlink:href="#path-1"></use>
                        </mask>
                        <g id="Clip-2"></g>
                        <g mask="url(#mask-2)">
                            <g transform="translate(1.000000, 3.000000)">
                                <mask id="mask-4" fill="white">
                                    <use xlink:href="#path-3"></use>
                                </mask>
                                <g id="Clip-2" stroke="none" fill="none"></g>
                                <path d="M4.40291368,4.48688767 C4.40291368,5.33822317 5.09304529,6.02833756 5.94438078,6.02833756 C6.7957851,6.02833756 7.4859167,5.33822317 7.4859167,4.48688767 C7.4859167,3.63553496 6.7957851,2.94535175 5.94438078,2.94535175 C5.09304529,2.94535175 4.40291368,3.63553496 4.40291368,4.48688767 Z" id="Fill-1" stroke="none" fill="#FFFFFF" fill-rule="evenodd" mask="url(#mask-4)"></path>
                                <path d="M11.9205034,4.13177458 C10.6157497,1.38318793 8.64343638,0 5.99948602,0 C3.35414212,0 1.38323954,1.38318793 0.0784686203,4.13311651 C-0.0275096084,4.3561009 -0.0275096084,4.61758841 0.0784686203,4.84198355 C1.38323954,7.59050139 3.35555287,8.97377533 5.99948602,8.97377533 C8.64477831,8.97377533 10.6157497,7.59050139 11.9205034,4.8405728 C12.0264989,4.61758841 12.0264989,4.35885358 11.9205034,4.13177458 Z M5.94438078,6.90926439 C4.6066121,6.90926439 3.52207288,5.82465635 3.52207288,4.48688767 C3.52207288,3.14905016 4.6066121,2.06451095 5.94438078,2.06451095 C7.28221829,2.06451095 8.3667575,3.14905016 8.3667575,4.48688767 C8.3667575,5.82465635 7.28221829,6.90926439 5.94438078,6.90926439 Z" id="Fill-3" stroke="none" fill="#FFFFFF" fill-rule="evenodd" mask="url(#mask-4)"></path>
                            </g>
                        </g>
                    </g>
                </g>
            </g>
        </g>
    </g>
</svg>