<?xml version="1.0" encoding="UTF-8"?>
<svg width="9px" height="12px" viewBox="0 0 9 12" version="1.1" xmlns="http://www.w3.org/2000/svg" xmlns:xlink="http://www.w3.org/1999/xlink">
    <title>讲话</title>
    <g id="页面-1" stroke="none" stroke-width="1" fill="none" fill-rule="evenodd">
        <g id="功能菜单" transform="translate(-1696.000000, -302.000000)" fill="#FFFFFF">
            <g id="加入用户备份" transform="translate(1686.000000, 30.000000)">
                <g id="编组-4" transform="translate(0.000000, 36.000000)">
                    <g id="矩形-2备份" transform="translate(2.000000, 144.000000)">
                        <g id="编组-2" transform="translate(0.000000, 86.000000)">
                            <g id="讲话" transform="translate(8.000000, 6.000000)">
                                <path d="M4.41963669,7.49998954 C5.67724096,7.49998954 6.69641923,6.49284808 6.69641923,5.25002616 L6.69641923,2.24996338 C6.69641923,1.00714145 5.67724096,0 4.41963669,0 C3.16203242,0 2.14285415,1.00714145 2.14285415,2.24996338 L2.14285415,5.25002616 C2.14285415,6.49284808 3.16203242,7.49998954 4.41963669,7.49998954 Z" id="Fill-1"></path>
                                <path d="M8.83927338,5.223207 C8.83927338,5.16427851 8.79107591,5.11609777 8.73216416,5.11609777 L7.92859385,5.11609777 C7.8695984,5.11609777 7.82140092,5.16427851 7.82140092,5.223207 C7.82140092,7.10218875 6.29861845,8.62497123 4.41963669,8.62497123 C2.54065494,8.62497123 1.01787246,7.10218875 1.01787246,5.223207 C1.01787246,5.16427851 0.969674987,5.11609777 0.910679533,5.11609777 L0.107109226,5.11609777 C0.0481974774,5.11609777 0,5.16427851 0,5.223207 C0,7.48259559 1.69555009,9.34686196 3.88392315,9.6106674 L3.88392315,10.9821275 L1.93797721,10.9821275 C1.75447858,10.9821275 1.60714062,11.1736619 1.60714062,11.4107318 L1.60714062,11.8928071 C1.60714062,11.9518025 1.64460708,12 1.69019295,12 L7.14908043,12 C7.1946663,12 7.23213277,11.9518025 7.23213277,11.8928071 L7.23213277,11.4107318 C7.23213277,11.1736619 7.0847948,10.9821275 6.90129618,10.9821275 L4.90179562,10.9821275 L4.90179562,9.6173973 C7.11559833,9.37629272 8.83927338,7.50129534 8.83927338,5.223207 Z" id="Fill-2"></path>
                            </g>
                        </g>
                    </g>
                </g>
            </g>
        </g>
    </g>
</svg>