<?xml version="1.0" encoding="UTF-8"?>
<svg width="14px" height="14px" viewBox="0 0 14 14" version="1.1" xmlns="http://www.w3.org/2000/svg" xmlns:xlink="http://www.w3.org/1999/xlink">
    <title>闭麦</title>
    <defs>
        <polygon id="path-1" points="0 0 14 0 14 14 0 14"></polygon>
    </defs>
    <g id="页面-1" stroke="none" stroke-width="1" fill="none" fill-rule="evenodd">
        <g id="功能菜单" transform="translate(-1507.000000, -269.000000)">
            <g id="编组-5备份-5" transform="translate(1404.000000, 261.000000)">
                <g id="编组-9备份-2" transform="translate(95.000000, 4.000000)">
                    <g id="闭麦" transform="translate(8.000000, 4.000000)">
                        <mask id="mask-2" fill="white">
                            <use xlink:href="#path-1"></use>
                        </mask>
                        <g id="Clip-2"></g>
                        <g id="禁言" mask="url(#mask-2)" fill="#FFFFFF">
                            <g transform="translate(6.920000, 7.000000) scale(-1, 1) translate(-6.920000, -7.000000) translate(2.500000, 1.000000)">
                                <path d="M6.70714474,5.23661658 L6.70714474,3.30799762 L5.68764197,4.32585334 L5.68764197,5.23661658 C5.68626701,5.91560001 5.12422505,6.47008026 4.42671553,6.46870749 C4.17048583,6.47008026 3.93305291,6.39638617 3.72915571,6.26781492 L3.00478408,7.00442103 C3.39517344,7.3044541 3.88876898,7.48657996 4.42671553,7.48657996 C5.68495911,7.48657996 6.70714474,6.48074431 6.70714474,5.23661658" id="Fill-1"></path>
                                <path d="M3.15235803,4.51335308 L3.15235803,2.24996338 C3.15235803,1.57228575 3.71441676,1.01787246 4.41328447,1.01787246 C5.03035856,1.01787246 5.54145975,1.45046115 5.65142339,2.01828401 L3.15235803,4.51335308 Z M7.72198604,0.089497643 C7.68038498,0.0493358687 7.61331353,0.0493358687 7.57172923,0.0908536679 L6.44424143,1.22542798 C6.06728313,0.498180109 5.29864434,0 4.41328447,0 C3.15366592,0 2.13285526,1.00844725 2.13285526,2.24996338 L2.13285526,5.24995919 C2.13285526,5.33974143 2.13823774,5.42808395 2.14896917,5.51512065 L1.23676395,6.42588389 C1.09594745,6.0522237 1.0181278,5.64637047 1.0194357,5.223207 C1.01681991,5.16427851 0.968478165,5.11603081 0.912154917,5.11603081 L0.107297548,5.11603081 C0.0482746743,5.11603081 0,5.16427851 0,5.223207 C0,5.93299396 0.167678619,6.60263588 0.464134416,7.19727791 L0.0511084429,7.61567018 C0.00952414553,7.65720472 0.00952414553,7.72545797 0.0511084429,7.76699251 L0.623915372,8.33886671 C0.665499669,8.38038451 0.73387901,8.38038451 0.775480075,8.33886671 L8.09862576,1.01258229 L8.30814019,0.803335933 C8.34972449,0.760495591 8.34841659,0.692175374 8.30544056,0.650624092 L7.72198604,0.089497643 Z M8.73265215,5.11603081 L7.92779478,5.11603081 C7.86878867,5.11603081 7.820514,5.16427851 7.820514,5.223207 C7.820514,7.10218875 6.29529252,8.62497123 4.41328447,8.62497123 C3.5681507,8.62497123 2.79421327,8.31696942 2.19992671,7.80799134 L1.47557184,8.53120462 C2.13148029,9.10980872 2.96189189,9.4994901 3.87671289,9.61603081 L3.87671289,10.9821275 L1.93164092,10.9821275 C1.74516553,10.9821275 1.59760834,11.1735949 1.59628368,11.4106649 L1.59628368,11.8928071 C1.59760834,11.9517356 1.63520189,12 1.67678619,12 L7.14979953,12 C7.19269172,12 7.23028526,11.9517356 7.23028526,11.8928071 L7.23028526,11.4106649 C7.23028526,11.1735949 7.08272808,10.9821275 6.89492803,10.9821275 L4.89621566,10.9821275 L4.89621566,9.61603081 C7.11358094,9.37629272 8.84,7.50129534 8.84,5.223207 C8.84,5.16427851 8.79174209,5.11603081 8.73265215,5.11603081 L8.73265215,5.11603081 Z" id="Fill-2"></path>
                            </g>
                        </g>
                    </g>
                </g>
            </g>
        </g>
    </g>
</svg>