<?xml version="1.0" encoding="utf-8"?>
<!-- Generator: Adobe Illustrator 24.2.3, SVG Export Plug-In . SVG Version: 6.00 Build 0)  -->
<svg version="1.1" id="图层_1" xmlns="http://www.w3.org/2000/svg" xmlns:xlink="http://www.w3.org/1999/xlink" x="0px" y="0px"
	 viewBox="0 0 733.9 546.1" style="enable-background:new 0 0 733.9 546.1;" xml:space="preserve">
<g>
	<path d="M699.7,0H34.1C15.4,0,0,15.4,0,34.1V512c0,18.8,15.4,34.1,34.1,34.1h665.6c18.8,0,34.1-15.4,34.1-34.1V34.1
		C733.9,15.4,718.5,0,699.7,0L699.7,0z M665.6,477.9H68.3V68.3h597.3V477.9z M665.6,477.9"/>
	<path d="M170.7,230.4h34.1c18.8,0,34.1-15.4,34.1-34.1c0-18.8-15.4-34.1-34.1-34.1h-34.1c-18.8,0-34.1,15.4-34.1,34.1
		C136.5,215,151.9,230.4,170.7,230.4L170.7,230.4z M307.2,230.4h51.2c18.8,0,34.1-15.4,34.1-34.1c0-18.8-15.4-34.1-34.1-34.1h-51.2
		c-18.8,0-34.1,15.4-34.1,34.1C273.1,215,288.4,230.4,307.2,230.4L307.2,230.4z M460.8,230.4h102.4c18.8,0,34.1-15.4,34.1-34.1
		c0-18.8-15.4-34.1-34.1-34.1H460.8c-18.8,0-34.1,15.4-34.1,34.1C426.7,215,442,230.4,460.8,230.4L460.8,230.4z M170.7,384h392.5
		c18.8,0,34.1-15.4,34.1-34.1c0-18.8-15.4-34.1-34.1-34.1H170.7c-18.8,0-34.1,15.4-34.1,34.1C136.5,368.6,151.9,384,170.7,384
		L170.7,384z M170.7,384"/>
</g>
</svg>
