<?xml version="1.0" encoding="utf-8"?>
<!-- Generator: Adobe Illustrator 24.2.3, SVG Export Plug-In . SVG Version: 6.00 Build 0)  -->
<svg version="1.1" id="图层_1" xmlns="http://www.w3.org/2000/svg" xmlns:xlink="http://www.w3.org/1999/xlink" x="0px" y="0px"
	 viewBox="0 0 595.9 595" style="enable-background:new 0 0 595.9 595;" xml:space="preserve">
<style type="text/css">
	.st0{clip-path:url(#SVGID_2_);}
</style>
<g>
	<g>
		<defs>
			<rect id="SVGID_1_" width="595.9" height="595"/>
		</defs>
		<clipPath id="SVGID_2_">
			<use xlink:href="#SVGID_1_"  style="overflow:visible;"/>
		</clipPath>
		<path class="st0" d="M207.2,69.1v156h-156v-156H207.2 M258.4,17.9H0v258.4h258.4V17.9z M436.4,103.1l70.4,122H366L436.4,103.1
			 M436.4,0.7L277.3,276.3h318.2L436.4,0.7L436.4,0.7z M436.4,365.6c42.3,0,78.6,29.9,86.9,71.3c8.2,41.4-13.9,82.9-53,99.1
			c-39,16.2-84.1,2.5-107.5-32.6c-23.5-35.1-18.9-82,11-111.8C390.4,374.9,412.9,365.6,436.4,365.6 M436.4,314.4
			c-56.5,0-107.5,34.1-129.2,86.3c-21.6,52.2-9.7,112.4,30.3,152.3c40,40,100.1,51.9,152.3,30.3c52.2-21.6,86.3-72.6,86.3-129.1
			C576.2,377,513.6,314.4,436.4,314.4L436.4,314.4z M222.9,327.7l-93.7,93.7l-93.7-93.7L2.6,360.5l93.7,93.7L2.6,548l32.8,32.8
			l93.7-93.7l93.7,93.7l32.8-32.8L162,454.2l93.8-93.7L222.9,327.7z M222.9,327.7"/>
	</g>
</g>
</svg>
