<?xml version="1.0" encoding="utf-8"?>
<!-- Generator: Adobe Illustrator 24.2.3, SVG Export Plug-In . SVG Version: 6.00 Build 0)  -->
<svg version="1.1" id="图层_1" xmlns="http://www.w3.org/2000/svg" xmlns:xlink="http://www.w3.org/1999/xlink" x="0px" y="0px"
	 viewBox="0 0 566.9 566.9" style="enable-background:new 0 0 566.9 566.9;" xml:space="preserve">
<style type="text/css">
	.st0{clip-path:url(#SVGID_2_);}
</style>
<g>
	<g>
		<g>
			<defs>
				<rect id="SVGID_1_" y="27.5" width="566.9" height="511.9"/>
			</defs>
			<clipPath id="SVGID_2_">
				<use xlink:href="#SVGID_1_"  style="overflow:visible;"/>
			</clipPath>
			<path class="st0" d="M393.5,437.1v51.2c0,28.3-22.9,51.2-51.2,51.2H52.2C23.9,539.5,1,516.6,1,488.3V78.7
				c0-28.3,22.9-51.2,51.2-51.2h290.1c28.3,0,51.2,22.9,51.2,51.2v51.2h-51.2V78.7H52.2v409.6h290.1v-51.2L393.5,437.1L393.5,437.1z
				 M566.9,288L446.2,408.7L410,372.5l59.2-59.2H225.4v-51.2h243.1L410,203.5l36.2-36.2L566.9,288L566.9,288z"/>
		</g>
	</g>
</g>
</svg>
