<?xml version="1.0" encoding="UTF-8"?>
<svg width="14px" height="14px" viewBox="0 0 14 14" version="1.1" xmlns="http://www.w3.org/2000/svg" xmlns:xlink="http://www.w3.org/1999/xlink">
    <title>关闭摄像头</title>
    <defs>
        <polygon id="path-1" points="0 0 14 0 14 14 0 14"></polygon>
    </defs>
    <g id="页面-1" stroke="none" stroke-width="1" fill="none" fill-rule="evenodd">
        <g id="功能菜单" transform="translate(-1537.000000, -269.000000)">
            <g id="编组-5备份-5" transform="translate(1404.000000, 261.000000)">
                <g id="编组-9备份-3" transform="translate(125.000000, 4.000000)">
                    <g id="关闭摄像头" transform="translate(8.000000, 4.000000)">
                        <mask id="mask-2" fill="white">
                            <use xlink:href="#path-1"></use>
                        </mask>
                        <g id="Clip-2"></g>
                        <g id="关闭视频" mask="url(#mask-2)">
                            <g transform="translate(1.000000, 1.500000)">
                                <g id="编组-4" stroke-width="1" fill="none" transform="translate(0.000000, 1.461280)">
                                    <path d="M2.392,0 L3.656,1.013 L1.42181656,1.0133794 C1.19456278,1.0133794 1.0103781,1.19756408 1.0103781,1.42481785 L1.0103781,7.01176355 C1.0103781,7.23901733 1.19456278,7.423202 1.42181656,7.423202 L6.91502359,7.423202 C7.14227737,7.423202 7.32646204,7.23901733 7.32646204,7.01176355 L7.326,3.955 L11.1896389,7.05283911 C10.968882,7.09003684 10.7383957,7.03607624 10.554661,6.8962478 L8.335,5.20642786 L8.33509183,7.19436537 C8.33509183,7.87604634 7.78248959,8.42860036 7.10085683,8.42860036 L1.234235,8.42860036 C0.552554029,8.42860036 0,7.87604634 0,7.19436537 L0,1.23466286 C0,0.552981886 0.552554029,0.000427856745 1.234235,0.000427856745 L2.392,0 Z M7.10085683,0.000427856745 C7.78248959,0.000427856745 8.33509183,0.552981886 8.33509183,1.23466286 L8.335,3.24642786 L10.5427206,1.68041932 C10.7926338,1.50295214 11.1205697,1.47908736 11.3935924,1.6186441 C11.6665991,1.75813655 11.8393576,2.0378607 11.841963,2.34445482 L11.841963,6.24359508 L11.838,6.319 L11.019,5.663 L11.0191323,2.47569168 L8.879,3.948 L7.326,2.703 L7.32646204,1.42481785 C7.32646204,1.19756408 7.14227737,1.0133794 6.91502359,1.0133794 L5.218,1.013 L3.954,0 L7.10085683,0.000427856745 Z" id="形状结合" fill="#FFFFFF"></path>
                                </g>
                                <polygon id="Fill-1" fill="#FFFFFF" points="0.613181056 0 11.9999952 9.12866986 11.386766 9.88988067 2.45164898e-12 0.761209124"></polygon>
                            </g>
                        </g>
                    </g>
                </g>
            </g>
        </g>
    </g>
</svg>