<?xml version="1.0" encoding="UTF-8"?>
<svg width="16px" height="16px" viewBox="0 0 16 16" version="1.1" xmlns="http://www.w3.org/2000/svg" xmlns:xlink="http://www.w3.org/1999/xlink">
    <title>屏幕共享</title>
    <defs>
        <polygon id="path-1" points="0 0 16 0 16 16 0 16"></polygon>
    </defs>
    <g id="页面-1" stroke="none" stroke-width="1" fill="none" fill-rule="evenodd">
        <g id="功能菜单" transform="translate(-1109.000000, -24.000000)">
            <g id="【黑】功能弹窗" transform="translate(575.000000, 10.000000)">
                <g id="画面备份-2" transform="translate(524.000000, 3.000000)">
                    <g id="屏幕共享" transform="translate(10.000000, 11.000000)">
                        <mask id="mask-2" fill="white">
                            <use xlink:href="#path-1"></use>
                        </mask>
                        <g id="Clip-2"></g>
                        <path d="M4.70592452,7.53335156 L11.2941858,7.53335156 L11.2941858,6.13335156 L4.70592452,6.13335156 L4.70592452,7.53335156 Z M1.41173875,11.2666211 L14.5882337,11.2666211 L14.5882337,2.39997266 L1.41173875,2.39997266 L1.41173875,11.2666211 Z M14.5882337,1 C15.3679588,1 16,1.62677344 16,2.39997266 L16,11.2666211 C16,12.0398203 15.3679588,12.6667031 14.5882337,12.6667031 L1.41173875,12.6667031 C0.632041167,12.6667031 0,12.0398203 0,11.2666211 L0,2.39997266 C0,1.62677344 0.632041167,1 1.41173875,1 L14.5882337,1 Z M4.70592452,15 L11.2941858,15 L11.2941858,13.6000273 L4.70592452,13.6000273 L4.70592452,15 Z" id="Fill-1" fill="#FEFEFE" mask="url(#mask-2)"></path>
                    </g>
                </g>
            </g>
        </g>
    </g>
</svg>