<?xml version="1.0" encoding="UTF-8"?>
<svg width="14px" height="14px" viewBox="0 0 14 14" version="1.1" xmlns="http://www.w3.org/2000/svg" xmlns:xlink="http://www.w3.org/1999/xlink">
    <title>查看</title>
    <defs>
        <polygon id="path-1" points="0 0 14 0 14 14 0 14"></polygon>
        <polygon id="path-3" points="0 0 12 0 12 10.6121536 0 10.6121536"></polygon>
    </defs>
    <g id="页面-1" stroke="none" stroke-width="1" fill="none" fill-rule="evenodd">
        <g id="功能菜单" transform="translate(-1567.000000, -269.000000)">
            <g id="编组-5备份-5" transform="translate(1404.000000, 261.000000)">
                <g id="编组-9备份-4" transform="translate(155.000000, 4.000000)">
                    <g id="查看" transform="translate(8.000000, 4.000000)">
                        <mask id="mask-2" fill="white">
                            <use xlink:href="#path-1"></use>
                        </mask>
                        <g id="Clip-2"></g>
                        <g id="禁止查看" mask="url(#mask-2)">
                            <g transform="translate(1.000000, 2.000000)">
                                <mask id="mask-4" fill="white">
                                    <use xlink:href="#path-3"></use>
                                </mask>
                                <g id="Clip-2"></g>
                                <path d="M11.921693,5.18769813 L11.9189231,5.18494549 C11.417925,4.12932444 10.8178663,3.2760398 10.1201059,2.62497112 L8.1656956,4.57938143 C8.29372787,4.87393134 8.36388584,5.20013663 8.36388584,5.54146425 C8.36388584,6.8791967 7.27936205,7.96372049 5.94161239,7.96372049 C5.60021596,7.96372049 5.27407948,7.89356252 4.97952957,7.76554746 L3.30038348,9.44467635 C4.10830114,9.83143977 5.00567967,10.0268602 5.99940067,10.0268602 C8.64465533,10.0268602 10.6155987,8.64369191 11.9203338,5.89373363 C12.0263278,5.67082123 12.0263278,5.41202126 11.921693,5.18769813 Z M11.0408475,0.615593999 L10.457253,0.0319994645 C10.4146558,-0.0106664882 10.344429,-0.0106664882 10.3017459,0.0319994645 L8.6942545,1.63816613 C7.89043139,1.24865007 6.99307007,1.05322969 5.99940067,1.05322969 C3.35409441,1.05322969 1.38321986,2.43646675 0.078467504,5.18635622 L0.078467504,5.18769813 C-0.027509217,5.41067934 -0.027509217,5.67216314 0.078467504,5.89648627 C0.579396755,6.95219333 1.17952435,7.80546077 1.87730192,8.45787136 L0.49136382,9.84105681 C0.448697867,9.88372277 0.448697867,9.95388073 0.49136382,9.99656389 L1.07488954,10.5801412 C1.1175727,10.6228244 1.18779948,10.6228244 1.23039661,10.5801412 L11.0408475,0.769690345 C11.0835306,0.728435121 11.0835306,0.658277156 11.0408475,0.615593999 Z M3.75462104,6.5777996 C3.60596116,6.26262208 3.52202278,5.91167741 3.52202278,5.54005352 C3.52202278,4.20230387 4.60654656,3.11771127 5.94429622,3.11771127 C6.31593731,3.11771127 6.66686477,3.20171846 6.98204229,3.35029232 L3.75462104,6.5777996 Z" id="Fill-1" fill="#FFFFFF" mask="url(#mask-4)" transform="translate(5.999492, 5.306077) scale(-1, 1) translate(-5.999492, -5.306077) "></path>
                            </g>
                        </g>
                    </g>
                </g>
            </g>
        </g>
    </g>
</svg>