<?xml version="1.0" encoding="utf-8"?>
<!-- Generator: Adobe Illustrator 24.2.3, SVG Export Plug-In . SVG Version: 6.00 Build 0)  -->
<svg version="1.1" id="图层_1" xmlns="http://www.w3.org/2000/svg" xmlns:xlink="http://www.w3.org/1999/xlink" x="0px" y="0px"
	 viewBox="0 0 546.1 571.7" style="enable-background:new 0 0 546.1 571.7;" xml:space="preserve">
<g>
	<g>
		<path d="M116.2,438.6c36.1,44.8,88.6,70.5,157.8,76.2l3.1,0l3.2-0.1l3.7-0.2l0.9,0l-0.8,0l0.8,0l0.9,0l1-0.1l0.8,0l-0.6,0l1,0
			c3.7-0.2,7.3-0.6,10.9-1l0.5-0.1l0.4-0.1l0.3,0l-0.2,0l0.3,0l-0.4,0h0l-0.9,0.1l4-0.5l-2.1,0.2l2.2-0.3l-0.2,0l0.2,0l0.9-0.1
			l0.2,0l1.1-0.1l2.3-0.4l-0.5,0.1l1-0.2l2.7-0.4l-1.1,0.2l0.6-0.1l1.3-0.2l0.3-0.1l0.8-0.1l0.5-0.1l2-0.4l1.3-0.3l-1,0.2l2.4-0.5
			l2.2-0.4l0.9-0.2l-0.7,0.2l1.3-0.3l0.1,0l0.3,0l0.5-0.1l0.5-0.1l1.8-0.4l2.2-0.5l-2.2,0.5l2.6-0.6l0.9-0.2l-0.8,0.2l0.9-0.2
			l1.1-0.3l1.2-0.3l1-0.3h0.1l0.5-0.1l0.7-0.2l1.2-0.3l0.9-0.3l0.3-0.1l1.4-0.4l0.4-0.1l1.4-0.4l0.4-0.1l1-0.3l1.2-0.4l0.2,0
			l2.3-0.7l2.2-0.8l2.1-0.7l0.4-0.2l2-0.7l1.1-0.4l-0.5,0.2l0.9-0.3l1.4-0.5l1.1-0.4l0.7-0.3l1.3-0.5l1.1-0.5l1.4-0.6l0.2-0.1
			l1.2-0.5l0.3-0.1l2.3-1l1-0.4l1.5-0.7l0.7-0.3l0.3-0.1l0,0l1.6-0.7l0.2-0.1l1.4-0.7l2.2-1.1l0.3-0.2l1.8-0.9l1-0.5l1.8-0.9
			l0.4-0.2l1.8-1l0.6-0.3l1.5-0.9l0.9-0.5l0.9-0.5l2.1-1.2l-2.1,1.2l2.2-1.2l1.5-0.9l-1.5,0.9l1.8-1l0.6-0.3
			c1.3-0.8,2.5-1.5,3.8-2.3l-1.5,0.9l3.2-2l2.1-1.4l3.1-2.1l0.9-0.6l1.6-1.1l1.1-0.8l0.8-0.5l0.3-0.2l0.7-0.5l0.9-0.6l1.9-1.4
			l0.3-0.3l0.1-0.1l1.3-1l0.2-0.2l0.1-0.1l1.8-1.4l0.2-0.2l1-0.8l2.5-2l3.7-3.1l1.8-1.5l1-0.9l0.4-0.3l0.3-0.3l0.1-0.1
			c2.2-1.9,4.3-3.9,6.5-5.9l3-2.9l2.9-2.9l1.4-1.4l1.4-1.4l1.6-1.7v0l1.6-1.8l0.9-1l0.5-0.6l0.2-0.3l0.3-0.4l1.2-1.4l1.3-1.5
			l0.2-0.2l1.2-1.4l0.3-0.3l0.3-0.4l1.4-1.8l-0.4,0.5l0.5-0.7l1.1-1.3l1.6-2l0-0.1l0.6-0.7l0.5-0.6l-1.1,1.4
			c1.9-2.4,3.7-4.8,5.5-7.3l0.9-1.3l0.5-0.7l1.4-2l-0.7,1l3.5-5.1c2.5-3.8,4.8-7.6,7.1-11.5l0.7-1.4l0,0c0.3-0.5,0.5-0.9,0.8-1.4
			l-0.4,0.7l1.3-2.2c4.3-7.9,8.1-16,11.5-24.4l1.3-3.4c2.7-7,5-14.2,6.9-21.5l1.1-4.1c3.8-15.2,5.9-30.8,6.4-46.5l0.1-7.6l0-5
			c-0.4-20.9-3.8-41.6-10-61.5h50.1c5.3,21.3,8.2,43.6,8.2,66.5c0,149.1-119.4,270.2-267.9,273l-5.2,0l-5.2,0
			c-69.8-1.2-136.4-29.2-186.1-78.2v62.4H33.4V390.3h140.3v48.3h-56.9H116.2z M285.4,514.4l-0.5,0l0,0L285.4,514.4z M287.1,514.3
			l-0.2,0l-1.4,0.1L287.1,514.3z M290,514.1l-1.9,0.2l-0.4,0L290,514.1L290,514.1z M299.7,513.2l-0.2,0l-0.2,0L299.7,513.2z
			 M300,513.2L300,513.2l-0.3,0L300,513.2L300,513.2L300,513.2z M303.3,512.8L303.3,512.8l-0.1,0L303.3,512.8z M304.1,512.6
			L304.1,512.6l-0.4,0.1L304.1,512.6z M306.4,512.3l-2.2,0.3l-0.1,0L306.4,512.3z M308.4,512l-0.2,0l-0.5,0.1L308.4,512z
			 M313.1,511.2l-0.2,0l-0.5,0.1l-0.3,0l-1,0.2l1.3-0.2L313.1,511.2z M333.8,506.4l-0.8,0.2l-0.7,0.2L333.8,506.4z M336.7,505.6
			l-1.2,0.3l-0.3,0.1L336.7,505.6z M340.7,504.4l-0.7,0.2l-0.8,0.3L340.7,504.4z M352.4,500.4l-0.6,0.2l-0.3,0.1L352.4,500.4z
			 M353.9,499.8l-0.6,0.3l-0.7,0.2L353.9,499.8L353.9,499.8z M372.4,491.6l-0.6,0.3l-0.1,0L372.4,491.6L372.4,491.6z M382.5,486.4
			l-0.7,0.4l-0.6,0.4L382.5,486.4z M83.6,168.9l-0.3,0.5l0.1-0.1L83.6,168.9z M116.6,128.6l-2.1,2L116.6,128.6L116.6,128.6z
			 M185.2,83l-0.6,0.3l0.2-0.1L185.2,83L185.2,83z M251.5,66.2l-1,0.1l-0.4,0L251.5,66.2z M251.9,66.2l-0.4,0L251.9,66.2L251.9,66.2
			z M252.1,66.2l-0.3,0l-0.1,0l-0.3,0l-1.5,0.1h0.1h-0.2h0.1l-0.1,0l-0.8,0.1l-3.5,0.4l2.3-0.3l-5.2,0.6l-5.1,0.8l-2.4,0.4l1-0.2
			l-2.1,0.4l-0.8,0.1l-1.3,0.2l-4,0.8l-4.7,1L222,71l-3.6,0.9c-2,0.5-4,1-6,1.6l0.6-0.2l-1.4,0.4l-1.9,0.6l-0.1,0l-2.3,0.7l-0.4,0.1
			l-0.5,0.2l-2.3,0.7l-3.8,1.3c-4.4,1.5-8.8,3.2-13.1,4.9l-0.9,0.4l0.6-0.2l-0.6,0.2l-0.3,0.1l-1.2,0.5l-0.5,0.2l0.3-0.1l-1.5,0.6h0
			l-1.1,0.5l-1.7,0.8l-0.1,0l-0.2,0.1l-1.6,0.7l-2.3,1.1l-0.1,0l-2.1,1l-0.7,0.3l-1.2,0.6l-0.9,0.5l-1.5,0.8l-1,0.5l-0.8,0.4
			l-0.6,0.3l-0.4,0.2l-0.5,0.3l-0.1,0.1l-0.5,0.3l-0.1,0.1c-3.4,1.9-6.8,3.8-10.1,5.8l-0.3,0.2l0,0l-1.4,0.9l-1.8,1.1l-2.1,1.4
			l-0.4,0.2l-0.1,0.1l-1.9,1.3l-0.1,0.1l-1.6,1.1l-1.2,0.8l0.8-0.5l-3.4,2.4l0,0l-0.3,0.2l-1.5,1.1l-1.8,1.3l-0.2,0.1l-0.4,0.3
			l-1.3,0.9l1.3-0.9l-3.5,2.7c-1.6,1.3-3.3,2.6-4.9,3.9l-0.9,0.7l-1.6,1.4l-0.5,0.4l-4.7,4.2c-5,4.5-9.7,9.3-14.2,14.2L103,143
			l-2.2,2.6l-0.3,0.4l-1.5,1.8l-1.5,1.8l-0.8,1l-0.9,1.1l-1.4,1.8l-1,1.3l-0.1,0.2l-0.2,0.2l-0.9,1.3l-0.3,0.3l-1.5,2.1l-0.7,1
			l-0.6,0.9l0,0l-0.4,0.6l-1,1.4l-0.7,1l-0.6,0.9l-0.1,0.1l-0.2,0.2l-0.9,1.4l-0.2,0.4l-1,1.6l-0.6,1l-0.1,0.2l-2.8,4.5l-3.3,5.7
			l-3.2,5.8c-0.5,1-1.1,2.1-1.6,3.2l-0.3,0.5l0,0.1l-0.8,1.7l0.8-1.7l-2,4.2c-0.8,1.6-1.5,3.3-2.3,4.9l-0.3,0.7l-0.1,0.3l-0.2,0.5
			c-7.1,16.3-12.3,33.3-15.4,50.8l-0.7,4.4c-1.8,11.5-2.7,23.2-2.7,34.9c0,23,3.5,45.3,9.9,66.2H8.1C2.7,334.6,0,312.3,0,290
			c0-18.3,1.8-36.3,5.2-53.6C30.1,111.3,140.6,16.9,273.1,16.9c70.5,0,134.8,26.7,183.3,70.7v-79h48.3v156.9H364.3v-48.3h42.6
			c-32.8-29-75.2-46-128.1-51.4l-6.6-0.6l-3.8,0l-3.9,0.1l-2,0.1h-0.3l-0.4,0h0.1l0.2,0h0.4h-0.4l-0.1,0h-0.1l-0.3,0h-0.1l-0.1,0
			h-0.1l-0.2,0l-0.7,0l0.4,0h0.4l0.2,0h0.4l-1,0l-0.9,0.1l-2.4,0.1l2.9-0.2l-0.5,0l-2.5,0.2l-0.7,0l-1.6,0.1l-1.1,0.1l-0.9,0.1h0.1
			l0.8-0.1l0.5,0l-1.3,0.1l-0.3,0L252.1,66.2z M257.3,65.8l-2.1,0.2l1.6-0.1L257.3,65.8z M261.2,65.5l-1.2,0.1l1-0.1H261.2z
			 M261.4,65.5L261.4,65.5l0.6,0l0.1,0h0.5h-0.5L261.4,65.5h-0.2H261.4z M300.6,513.1L300.6,513.1L300.6,513.1L300.6,513.1l0.3,0
			L300.6,513.1L300.6,513.1L300.6,513.1z M322.5,509.3l-0.4,0.1l-0.1,0L322.5,509.3z M322.5,509.3"/>
	</g>
</g>
</svg>
