<?xml version="1.0" encoding="UTF-8"?>
<svg width="16px" height="16px" viewBox="0 0 16 16" version="1.1" xmlns="http://www.w3.org/2000/svg" xmlns:xlink="http://www.w3.org/1999/xlink">
    <title>控制</title>
    <defs>
        <polygon id="path-1" points="0 0 16 0 16 16 0 16"></polygon>
    </defs>
    <g id="页面-1" stroke="none" stroke-width="1" fill="none" fill-rule="evenodd">
        <g id="网络状况" transform="translate(-829.000000, -24.000000)">
            <g id="【黑】功能弹窗" transform="translate(816.000000, 10.000000)">
                <g id="控制" transform="translate(3.000000, 3.000000)">
                    <g transform="translate(10.000000, 11.000000)">
                        <mask id="mask-2" fill="white">
                            <use xlink:href="#path-1"></use>
                        </mask>
                        <g id="Clip-2"></g>
                        <path d="M7.56250401,8.43747036 L7.56250401,13.6874992 C7.56250401,14.4123995 6.97490355,14.9999744 6.25002884,14.9999744 L2.31247517,14.9999744 C1.58760046,14.9999744 1,14.4123995 1,13.6874992 L1,9.74997116 C1,9.02507082 1.58760046,8.43747036 2.31247517,8.43747036 L7.56250401,8.43747036 Z M13.6875248,8.43747036 C14.4123995,8.43747036 15,9.02507082 15,9.74997116 L15,13.6874992 C15,14.4123995 14.4123995,14.9999744 13.6875248,14.9999744 L9.74997116,14.9999744 C9.02509645,14.9999744 8.43749599,14.4123995 8.43749599,13.6874992 L8.43749599,8.43747036 L13.6875248,8.43747036 Z M2.31247517,13.6874992 L6.25002884,13.6874992 L6.25002884,9.74997116 L2.31247517,9.74997116 L2.31247517,13.6874992 Z M9.74997116,13.6874992 L13.6875248,13.6874992 L13.6875248,9.74997116 L9.74997116,9.74997116 L9.74997116,13.6874992 Z M6.25002884,1 C6.97490355,1 7.56250401,1.58760046 7.56250401,2.31247517 L7.56250401,7.56250401 L2.31247517,7.56250401 C1.58760046,7.56250401 1,6.97490355 1,6.2500032 L1,2.31247517 C1,1.58760046 1.58760046,1 2.31247517,1 L6.25002884,1 Z M11.718748,1 C13.5308963,1 15,2.46907805 15,4.281252 C15,6.09340033 13.5308963,7.56250401 11.718748,7.56250401 C9.90657404,7.56250401 8.43749599,6.09340033 8.43749599,4.281252 C8.43749599,2.46907805 9.90657404,1 11.718748,1 Z M2.31247517,6.2500032 L6.25002884,6.2500032 L6.25002884,2.31247517 L2.31247517,2.31247517 L2.31247517,6.2500032 Z M11.718748,2.31247517 C11.0153809,2.31247517 10.365411,2.68776836 10.0137274,3.29690204 C9.66204386,3.90603571 9.66204386,4.65644266 10.0137274,5.26557633 C10.365411,5.87471001 11.0153809,6.2500032 11.718748,6.2500032 C12.8060216,6.2500032 13.6875248,5.36852562 13.6875248,4.281252 C13.6875248,3.19397839 12.8060216,2.31247517 11.718748,2.31247517 Z" fill="#FFFFFF" mask="url(#mask-2)"></path>
                    </g>
                </g>
            </g>
        </g>
    </g>
</svg>