<?xml version="1.0" encoding="UTF-8"?>
<svg width="44px" height="44px" viewBox="0 0 44 44" version="1.1" xmlns="http://www.w3.org/2000/svg" xmlns:xlink="http://www.w3.org/1999/xlink">
    <title>【经过】球3</title>
    <defs>
        <polygon id="path-1" points="0 0 24 0 24 24 0 24"></polygon>
    </defs>
    <g id="页面-1" stroke="none" stroke-width="1" fill="none" fill-rule="evenodd">
        <g id="新增侧边悬浮样式" transform="translate(-622.000000, -69.000000)">
            <g id="【经过】球3" transform="translate(622.000000, 69.000000)">
                <rect id="矩形" fill="#212121" opacity="0.800000012" x="0" y="0" width="44" height="44" rx="22"></rect>
                <rect id="矩形" stroke="#FFFFFF" stroke-width="2" opacity="0.9" x="1" y="1" width="42" height="42" rx="21"></rect>
                <g id="编组" transform="translate(10.000000, 10.000000)">
                    <mask id="mask-2" fill="white">
                        <use xlink:href="#path-1"></use>
                    </mask>
                    <g id="Clip-2"></g>
                    <path d="M0,11.9163468 C0,13.9249461 0.856243732,15.7336169 2.2236516,16.9971412 L2.2236516,16.9971412 C3.45660569,18.1364941 5.10518611,18.8327397 6.91639289,18.8327397 L6.91639289,18.8327397 C8.71676407,18.8327397 10.3561688,18.1445171 11.5865869,17.0171525 L11.5865869,17.0171525 L11.5875552,17.018213 L11.6440848,16.9638506 C11.6862284,16.9243813 11.7277726,16.8843126 11.7689018,16.8437828 L11.7689018,16.8437828 L14.5151065,14.2027527 C14.5151065,14.2027527 14.5278786,14.2152021 14.5151987,14.2026605 L14.5151987,14.2026605 L15.0342013,13.7035308 L16.8146995,11.9911817 L16.838584,11.9683116 L16.8385379,11.9682655 L17.7427811,11.0986963 C18.1964934,10.7202799 18.7374439,10.3615981 19.1585573,10.3615981 L19.1585573,10.3615981 C20.0498438,10.3615981 20.7723715,11.0841258 20.7723715,11.9754124 L20.7723715,11.9754124 C20.7723715,12.8666528 20.0498438,13.5892266 19.1585573,13.5892266 L19.1585573,13.5892266 C18.6517274,13.5892266 17.9714355,13.0651981 17.4785766,12.6130073 L17.4785766,12.6130073 L15.2131964,14.7819276 C16.0908808,16.0135906 17.5309103,16.816809 19.1585573,16.816809 L19.1585573,16.816809 C21.8324169,16.816809 24,14.6492721 24,11.9754124 L24,11.9754124 C24,11.077025 23.755023,10.2359973 23.3286533,9.51494507 L23.3286533,9.51494507 C23.3286533,9.51489896 23.3286072,9.51489896 23.3286072,9.51485285 L23.3286072,9.51485285 C22.856774,8.71689087 22.1625111,8.06610875 21.3310279,7.64790031 L21.3310279,7.64790031 L21.3312584,7.64766977 C21.3279386,7.64600984 21.3244804,7.64444214 21.3211606,7.64278222 L21.3211606,7.64278222 C21.3180252,7.64121451 21.3148897,7.63978513 21.3117543,7.63821743 L21.3117543,7.63821743 C21.3097255,7.63715692 21.3075584,7.63623474 21.3054835,7.63522034 L21.3054835,7.63522034 C21.2685502,7.61686897 21.2313403,7.5990248 21.1938998,7.58164171 L21.1938998,7.58164171 C21.1919171,7.58076564 21.1900266,7.57975124 21.1880901,7.57887517 L21.1880901,7.57887517 C21.1865685,7.57818354 21.1850469,7.57753801 21.1835253,7.57680027 L21.1835253,7.57680027 C20.9492455,7.46881304 20.7049602,7.37894664 20.4523291,7.30904543 L20.4523291,7.30904543 C20.4470265,7.30747772 20.441724,7.30591002 20.4363754,7.30448064 L20.4363754,7.30448064 C20.4304273,7.30286683 20.424387,7.30148356 20.418439,7.29986974 L20.418439,7.29986974 C20.382474,7.29018686 20.3463245,7.28096506 20.3100368,7.27211214 L20.3100368,7.27211214 C20.3028438,7.27036 20.2956969,7.26828509 20.2884578,7.26657906 L20.2884578,7.26657906 C20.2839391,7.26551855 20.2793743,7.26450416 20.2748556,7.26348976 L20.2748556,7.26348976 C20.0178903,7.20290256 19.7530403,7.16283386 19.4820578,7.14494357 L19.4820578,7.14494357 C19.478323,7.14471303 19.4745882,7.14439027 19.4708073,7.14411361 L19.4708073,7.14411361 C19.4676718,7.14392918 19.4645825,7.14383696 19.4614471,7.14365252 L19.4614471,7.14365252 C19.420779,7.14111653 19.3800187,7.13913384 19.3390278,7.13765836 L19.3390278,7.13765836 C19.331097,7.13728948 19.3232124,7.13682839 19.3152356,7.13655174 L19.3152356,7.13655174 C19.3127918,7.13650563 19.310348,7.13650563 19.3079503,7.13645952 L19.3079503,7.13645952 C19.2583371,7.13493793 19.2085855,7.13396964 19.1585573,7.13396964 L19.1585573,7.13396964 C19.1040564,7.13396964 19.0498323,7.13521458 18.9957926,7.13696672 L18.9957926,7.13696672 C18.9939943,7.13701283 18.9921961,7.13710505 18.9903517,7.13715116 L18.9903517,7.13715116 C18.9891068,7.13719727 18.9878618,7.13728948 18.9865708,7.13733559 L18.9865708,7.13733559 C18.9466865,7.13871886 18.9068944,7.14056322 18.8672407,7.14291478 L18.8672407,7.14291478 C18.8638748,7.14314532 18.8605088,7.14332976 18.857189,7.1435142 L18.857189,7.1435142 C18.8546991,7.14365252 18.8522553,7.14388307 18.8498115,7.14402139 L18.8498115,7.14402139 C18.8145382,7.14623463 18.779357,7.14881673 18.7443142,7.15181381 L18.7443142,7.15181381 C18.7393344,7.15222879 18.7344008,7.15259766 18.7294671,7.15305875 L18.7294671,7.15305875 C18.7259167,7.15333541 18.7223202,7.15370428 18.7187237,7.15402704 L18.7187237,7.15402704 C18.6868163,7.1568858 18.6550011,7.16006732 18.6232781,7.16352549 L18.6232781,7.16352549 C18.6169151,7.16426324 18.6105981,7.16490876 18.6042812,7.1656004 L18.6042812,7.1656004 C18.5996703,7.1661537 18.5950594,7.16679923 18.5904485,7.16730643 L18.5904485,7.16730643 C18.561446,7.17067238 18.5325356,7.17426888 18.5036714,7.17818815 L18.5036714,7.17818815 C18.4960634,7.17924865 18.4884094,7.18017083 18.4808014,7.18127745 L18.4808014,7.18127745 C18.4752222,7.18201519 18.4696891,7.18293737 18.464156,7.18376733 L18.464156,7.18376733 C18.4378278,7.18754827 18.4115918,7.19146753 18.385448,7.19566345 L18.385448,7.19566345 C18.3765029,7.19709283 18.3674655,7.19838388 18.3585665,7.19990548 L18.3585665,7.19990548 C18.3520651,7.20096598 18.3456098,7.20221093 18.3391546,7.20331754 L18.3391546,7.20331754 C18.3155007,7.20737513 18.2918929,7.21157105 18.2683312,7.21590529 L18.2683312,7.21590529 C18.258095,7.21779576 18.2478588,7.2195479 18.2376226,7.22153059 L18.2376226,7.22153059 C18.230153,7.22295997 18.2227755,7.22461989 18.2153059,7.22609538 L18.2153059,7.22609538 C18.1928047,7.23056795 18.1703496,7.23517885 18.1478945,7.23992807 L18.1478945,7.23992807 C18.137935,7.24200297 18.1278833,7.24389344 18.1179237,7.24606056 L18.1179237,7.24606056 C18.1158949,7.24647554 18.1139122,7.24702885 18.1118834,7.24748994 L18.1118834,7.24748994 C18.1055204,7.24887321 18.0992496,7.25048703 18.0928865,7.2518703 L18.0928865,7.2518703 C18.0703854,7.25694228 18.0479764,7.26224482 18.0256135,7.26759346 L18.0256135,7.26759346 C18.0168067,7.26971447 18.0079538,7.27160494 17.9991931,7.27377206 L17.9991931,7.27377206 C17.991539,7.27561642 17.983931,7.27759911 17.976323,7.2796279 L17.976323,7.2796279 C17.9523003,7.28562207 17.9284158,7.291939 17.9045314,7.29830204 L17.9045314,7.29830204 C17.8968773,7.30033083 17.8892693,7.3022213 17.8816613,7.3042501 L17.8816613,7.3042501 C17.8754827,7.30595613 17.8693502,7.30775438 17.8631716,7.30950652 L17.8631716,7.30950652 C17.8366589,7.31683785 17.8101924,7.32449194 17.7838181,7.33228435 L17.7838181,7.33228435 C17.7775011,7.33412871 17.7711381,7.33588085 17.7649134,7.33777132 L17.7649134,7.33777132 C17.7602564,7.33915459 17.7556916,7.34063008 17.7510807,7.34201335 L17.7510807,7.34201335 C17.7218476,7.35091238 17.6927528,7.36008807 17.6637964,7.3694943 L17.6637964,7.3694943 C17.6589088,7.37106201 17.6539752,7.3725836 17.6491337,7.37419742 L17.6491337,7.37419742 C17.6459983,7.37521181 17.642909,7.37627232 17.6397736,7.37728672 L17.6397736,7.37728672 C17.6072668,7.387984 17.5749905,7.39914237 17.5428064,7.41048518 L17.5428064,7.41048518 C17.5398093,7.4115918 17.5367661,7.41256009 17.5337691,7.4136667 L17.5337691,7.4136667 C17.5322936,7.4141739 17.5308181,7.41472721 17.5292965,7.41528052 L17.5292965,7.41528052 C17.4404445,7.44700349 17.3527452,7.48107803 17.2663831,7.51778077 L17.2663831,7.51778077 C17.2657376,7.51801132 17.2651382,7.51828797 17.2644926,7.51856463 L17.2644926,7.51856463 C17.2573457,7.52160782 17.250245,7.52488156 17.2430981,7.52797086 L17.2430981,7.52797086 C17.2153405,7.53991308 17.187629,7.55194753 17.160148,7.56439695 L17.160148,7.56439695 C17.1585342,7.5651808 17.1568282,7.56587244 17.1552143,7.56661018 L17.1552143,7.56661018 C17.1520328,7.56803956 17.1489435,7.56956116 17.1458081,7.57099054 L17.1458081,7.57099054 C17.1366324,7.57518645 17.1276873,7.57961292 17.1186038,7.58385494 L17.1186038,7.58385494 C17.0956415,7.59450612 17.0726793,7.60515729 17.0499014,7.61617734 L17.0499014,7.61617734 C17.0491176,7.61659232 17.0482876,7.61696119 17.0474577,7.61733006 L17.0474577,7.61733006 C17.035331,7.62323201 17.0233427,7.62941061 17.011216,7.63535867 L17.011216,7.63535867 C17.0090028,7.63646529 17.0068357,7.6375719 17.0046685,7.63863241 L17.0046685,7.63863241 C16.9834123,7.64923747 16.9621561,7.65979643 16.9410843,7.67067815 L16.9410843,7.67067815 C16.9410381,7.67072426 16.940992,7.67072426 16.9409459,7.67077037 L16.9409459,7.67077037 C16.9271132,7.67787115 16.9134189,7.68520248 16.8997245,7.69248769 L16.8997245,7.69248769 C16.8980646,7.69336377 16.8964508,7.69423984 16.8948369,7.6950698 L16.8948369,7.6950698 C16.8696153,7.7084414 16.8444859,7.72199744 16.8195871,7.73573792 L16.8195871,7.73573792 C16.8107342,7.74067158 16.8018351,7.74560524 16.7930283,7.7505389 L16.7930283,7.7505389 C16.7909995,7.75169162 16.7889707,7.75284435 16.7869419,7.75399707 L16.7869419,7.75399707 C16.7627347,7.76769144 16.7385736,7.78152413 16.7145969,7.79554126 L16.7145969,7.79554126 C16.7062051,7.80047492 16.6977672,7.80536247 16.6894214,7.81034224 L16.6894214,7.81034224 C16.6867932,7.81190995 16.684165,7.81352376 16.6814907,7.81509147 L16.6814907,7.81509147 C16.6590356,7.82850918 16.6366728,7.84211133 16.6144482,7.85585181 L16.6144482,7.85585181 C16.6055953,7.86133877 16.5966963,7.86677963 16.5878895,7.8722666 L16.5878895,7.8722666 C16.5846157,7.87434151 16.5813881,7.87646252 16.5780683,7.87853742 L16.5780683,7.87853742 C16.5575959,7.89149405 16.5372157,7.90463511 16.5169278,7.91782227 L16.5169278,7.91782227 C16.5073371,7.92404699 16.4976542,7.9302717 16.4881096,7.93658863 L16.4881096,7.93658863 C16.4841443,7.93921684 16.480225,7.94198338 16.4762596,7.94461159 L16.4762596,7.94461159 C16.4577238,7.9569688 16.4393263,7.96946433 16.4209289,7.98209819 L16.4209289,7.98209819 C16.4207444,7.98223652 16.4204678,7.98242095 16.4202833,7.98255928 L16.4202833,7.98255928 C16.4102777,7.98938341 16.4002259,7.99611532 16.3903125,8.00298556 L16.3903125,8.00298556 C16.3857016,8.00625929 16.3811829,8.00957914 16.376572,8.01285288 L16.376572,8.01285288 C16.3581745,8.02576339 16.3399154,8.03895056 16.3217023,8.05209162 L16.3217023,8.05209162 C16.3125728,8.0586852 16.303351,8.06509435 16.2942214,8.07178015 L16.2942214,8.07178015 C16.2906249,8.07440836 16.2871206,8.07722101 16.283478,8.07984922 L16.283478,8.07984922 C16.2818181,8.08109417 16.2801582,8.08238522 16.2784982,8.08363016 L16.2784982,8.08363016 C16.2602391,8.0971862 16.2422105,8.11088057 16.2241357,8.12466715 L16.2241357,8.12466715 C16.216205,8.13075354 16.2080898,8.13665549 16.2001591,8.14278798 L16.2001591,8.14278798 C16.195917,8.14606172 16.1917672,8.14942767 16.1876174,8.15270141 L16.1876174,8.15270141 C16.1674678,8.16837846 16.1475487,8.18433217 16.1276758,8.20028588 L16.1276758,8.20028588 C16.1210361,8.20558841 16.1143042,8.21079872 16.1077106,8.21619347 L16.1077106,8.21619347 C16.1046674,8.21863725 16.1017164,8.22112713 16.0987654,8.22357091 L16.0987654,8.22357091 C16.0764026,8.24178396 16.0543625,8.26027366 16.0323685,8.27894779 L16.0323685,8.27894779 C16.0272504,8.28318982 16.0220862,8.28743185 16.0170142,8.29176609 L16.0170142,8.29176609 C16.015216,8.29333379 16.0134177,8.29485539 16.0116195,8.2964231 L16.0116195,8.2964231 C15.9857062,8.31864762 15.9600696,8.34114881 15.9346175,8.36388053 L15.9346175,8.36388053 C15.932312,8.36595544 15.9299605,8.36793812 15.9277472,8.36996692 L15.9277472,8.36996692 C15.9271939,8.37042801 15.9266867,8.37093521 15.9261334,8.3713963 L15.9261334,8.3713963 C15.9131768,8.38306187 15.9002202,8.39472744 15.8874019,8.40648523 L15.8874019,8.40648523 C15.881546,8.41174165 15.8756441,8.41699807 15.8698344,8.42234672 L15.8698344,8.42234672 C14.9152402,9.30639416 13.1737502,11.0147779 13.1725513,11.0159768 L13.1725513,11.0159768 L10.9416606,13.1614275 L10.682482,13.4093555 L9.54953833,14.498634 C9.5318786,14.5166165 9.51384998,14.534184 9.49582137,14.5518438 L9.49582137,14.5518438 L9.44044449,14.6051458 C9.42190868,14.6226211 9.40346509,14.6401886 9.38456041,14.6572028 L9.38456041,14.6572028 L9.38276216,14.6589549 L9.38271605,14.6588627 C9.36477966,14.6750009 9.34610552,14.6902629 9.32789247,14.7060322 L9.32789247,14.7060322 L9.21211283,14.8022616 C8.58198753,15.304204 7.78462496,15.6050651 6.91639289,15.6050651 L6.91639289,15.6050651 C6.02510634,15.6050651 5.20764026,15.288988 4.56999919,14.7627463 L4.56999919,14.7627463 C3.75022766,14.0861892 3.22767461,13.0622932 3.22767461,11.9163468 L3.22767461,11.9163468 C3.22767461,9.87911379 4.87915989,8.2276285 6.91639289,8.2276285 L6.91639289,8.2276285 C7.85918318,8.2276285 8.78841742,8.58216044 9.74923632,9.54297933 L9.74923632,9.54297933 C9.74923632,9.54297933 10.5376076,10.3175641 11.554034,11.3186361 L11.554034,11.3186361 L13.8946179,9.07953799 L11.7017671,6.9237588 C10.4594068,5.73244112 8.77361644,5 6.91639289,5 L6.91639289,5 C3.09663289,5 0,8.09658678 0,11.9163468" id="Fill-1" fill="#FFFFFF" mask="url(#mask-2)" transform="translate(12.000000, 11.916370) scale(1, -1) translate(-12.000000, -11.916370) "></path>
                </g>
            </g>
        </g>
    </g>
</svg>