<?xml version="1.0" encoding="utf-8"?>
<!-- Generator: Adobe Illustrator 24.2.3, SVG Export Plug-In . SVG Version: 6.00 Build 0)  -->
<svg version="1.1" id="图层_1" xmlns="http://www.w3.org/2000/svg" xmlns:xlink="http://www.w3.org/1999/xlink" x="0px" y="0px"
	 viewBox="0 0 1000 1000" style="enable-background:new 0 0 1000 1000;" xml:space="preserve">
<g>
	<path d="M900,100c51,0,92.3,41.3,92.3,92.3v615.3c0,51-41.3,92.3-92.3,92.3H100c-51,0-92.3-41.3-92.3-92.3V192.3
		c0-51,41.3-92.3,92.3-92.3H900z M900,192.3H100v615.3H900V192.3z M838.4,300L838.4,300c0,25.5-20.7,46.1-46.1,46.1h-1.4
		c-25.5,0-46.1-20.7-46.1-46.1v0c0-25.5,20.7-46.1,46.1-46.1h1.4C817.8,253.9,838.4,274.5,838.4,300z M683.6,300L683.6,300
		c0,25.5-20.7,46.1-46.1,46.1H636c-25.5,0-46.1-20.7-46.1-46.1v0c0-25.5,20.7-46.1,46.1-46.1h1.4C662.9,253.9,683.6,274.5,683.6,300
		z M900,407.7V500H100v-92.3H900z M207.7,253.9h109.6c25.5,0,46.1,20.7,46.1,46.1v0c0,25.5-20.7,46.1-46.1,46.1H207.7
		c-25.5,0-46.1-20.7-46.1-46.1v0C161.6,274.5,182.3,253.9,207.7,253.9z"/>
</g>
</svg>
