<?xml version="1.0" encoding="utf-8"?>
<!-- Generator: Adobe Illustrator 24.2.3, SVG Export Plug-In . SVG Version: 6.00 Build 0)  -->
<svg version="1.1" id="图层_1" xmlns="http://www.w3.org/2000/svg" xmlns:xlink="http://www.w3.org/1999/xlink" x="0px" y="0px"
	 viewBox="0 0 614.4 614.4" style="enable-background:new 0 0 614.4 614.4;" xml:space="preserve">
<style type="text/css">
	.st0-control{fill:#FFFFFF;}
</style>
<g>
	<path class="st0-control" d="M190.1,442.3c34.4,0,65,21.7,76.5,54.1h346.9v57.4H265.3c-12.4,30.6-42.1,50.7-75.2,50.7s-62.8-20-75.2-50.7
		H0.9v-57.4h112.7C125.1,464,155.7,442.3,190.1,442.3L190.1,442.3z M190.1,499.7c-13.1,0-23.6,10.6-23.6,23.6
		c0,13.1,10.6,23.6,23.6,23.6c13.1,0,23.6-10.6,23.6-23.6C213.7,510.3,203.2,499.7,190.1,499.7L190.1,499.7z M424.3,226.1
		c34.4,0,65,21.7,76.5,54.1h112.7v57.4h-114c-12.4,30.6-42.1,50.7-75.2,50.7s-62.8-20-75.2-50.7H0.9v-57.4h346.9
		C359.3,247.8,389.9,226.1,424.3,226.1L424.3,226.1z M424.3,283.5c-8.4,0-16.3,4.5-20.5,11.8c-4.2,7.3-4.2,16.3,0,23.6
		c4.2,7.3,12,11.8,20.5,11.8c13.1,0,23.6-10.6,23.6-23.6C447.9,294.1,437.4,283.6,424.3,283.5L424.3,283.5z M190.1,9.9
		c34.4,0,65,21.6,76.5,54h346.9v57.4H265.3c-12.4,30.6-42.1,50.7-75.2,50.7s-62.8-20-75.2-50.7H0.9V64h112.7
		C125.1,31.6,155.7,9.9,190.1,9.9L190.1,9.9z M190.1,67.4c-8.4,0-16.3,4.5-20.5,11.8c-4.2,7.3-4.2,16.3,0,23.6
		c4.2,7.3,12,11.8,20.5,11.8c13.1,0,23.6-10.6,23.6-23.6C213.7,78,203.2,67.4,190.1,67.4L190.1,67.4z M190.1,67.4"/>
</g>
</svg>
