<?xml version="1.0" encoding="utf-8"?>
<!-- Generator: Adobe Illustrator 24.2.3, SVG Export Plug-In . SVG Version: 6.00 Build 0)  -->
<svg version="1.1" id="图层_1" xmlns="http://www.w3.org/2000/svg" xmlns:xlink="http://www.w3.org/1999/xlink" x="0px" y="0px"
	 viewBox="0 0 546.1 524.4" style="enable-background:new 0 0 546.1 524.4;" xml:space="preserve">
<g>
	<path d="M44.9,100.6v346.7h355.2v44.6H74.1c-40.8,0-73.8-33-73.8-73.8V100.6H44.9z M500.5,31.9c24.6,0,44.6,20,44.6,44.6v295.2
		c0,24.6-20,44.6-44.6,44.6H123c-24.6,0-44.6-20-44.6-44.6V76.5c0-24.6,20-44.6,44.6-44.6H500.5z M500.5,76.5H123v295.2h377.5
		L500.5,76.5L500.5,76.5z M451.6,131.7v44.6c-59.9,0.6-97.4,20.6-115.9,59.3l-1.6,3.6l-1.9,4.3c-29.7,64-88,94.7-170.5,91.2l5.1,0.2
		l0-44.6c63.2,1.9,103.3-19.5,124.6-65l1.7-3.8l1.8-4C321.3,160.9,374.7,132.5,451.6,131.7L451.6,131.7z M202.6,122.4
		c9.8,0,18.9,5.2,23.8,13.7c4.9,8.5,4.9,19,0,27.5c-4.9,8.5-14,13.7-23.8,13.7c-15.2,0-27.5-12.3-27.5-27.5
		C175.1,134.7,187.4,122.4,202.6,122.4L202.6,122.4z M202.6,122.4"/>
</g>
</svg>
