<?xml version="1.0" encoding="utf-8"?>
<!-- Generator: Adobe Illustrator 24.2.3, SVG Export Plug-In . SVG Version: 6.00 Build 0)  -->
<svg version="1.1" id="图层_1" xmlns="http://www.w3.org/2000/svg" xmlns:xlink="http://www.w3.org/1999/xlink" x="0px" y="0px"
	 viewBox="0 0 733.9 733.9" style="enable-background:new 0 0 733.9 733.9;" xml:space="preserve">
<g>
	<g>
		<path d="M354.8,129.3c54.6,0,98.9,44.3,98.9,98.9v188h168.1c35.7,0,64.6,28.9,64.6,64.6v251.9H236.1L108.2,623.1
			C66.1,587,59.7,524.2,93.6,480.3l4-4.8c36.6-41.8,99.6-47.6,143.2-13.1l4.6,3.9l10.4,9.3V228.2
			C255.9,173.6,300.2,129.3,354.8,129.3L354.8,129.3z M354.8,193.9c-18.9,0-34.3,15.4-34.3,34.3v391.1L202.5,514.5l-3.1-2.5
			c-16.6-12.1-39.7-9.5-53.3,6l-2.5,3.1c-11.8,16.7-9,39.6,6.5,52.9l96.8,83l79.6,75.7H622V646h-0.2V480.7H389.1V228.2
			C389.1,209.2,373.7,193.9,354.8,193.9L354.8,193.9z M351.3,0.1c118.9,0,215.3,96.4,215.3,215.3c0.1,57.7-23.1,112.9-64.2,153.4
			V215.4H502c-0.1-54.6-29.6-104.8-77.3-131.4c-47.7-26.6-105.9-25.3-152.4,3.3c-46.5,28.6-73.8,80.1-71.6,134.6l0,147.5
			c-41.5-40.5-64.8-96-64.7-153.9C136,96.5,232.4,0.1,351.3,0.1L351.3,0.1z M351.3,0.1"/>
	</g>
</g>
</svg>
