<?xml version="1.0" encoding="UTF-8"?>
<svg width="16px" height="16px" viewBox="0 0 16 16" version="1.1" xmlns="http://www.w3.org/2000/svg" xmlns:xlink="http://www.w3.org/1999/xlink">
    <title>音视频设置</title>
    <defs>
        <polygon id="path-1" points="0 0 15.9980308 0 15.9980308 16 0 16"></polygon>
    </defs>
    <g id="页面-1" stroke="none" stroke-width="1" fill="none" fill-rule="evenodd">
        <g id="功能菜单" transform="translate(-996.000000, -24.000000)">
            <g id="【黑】功能弹窗" transform="translate(575.000000, 10.000000)">
                <g id="画面备份-5" transform="translate(411.000000, 3.000000)">
                    <g id="音视频设置" transform="translate(10.000000, 11.000000)">
                        <mask id="mask-2" fill="white">
                            <use xlink:href="#path-1"></use>
                        </mask>
                        <g id="Clip-2"></g>
                        <path d="M3.76920407,15 L3.76920407,13.7272953 L5.29232829,13.7272953 L5.72894797,11.5398909 C3.82470805,10.6727693 2.5,8.74918279 2.5,6.51516959 C2.5,3.46909529 4.96230399,1 8,1 C11.037696,1 13.5,3.46909529 13.5,6.51516959 C13.5,8.74880992 12.1757877,10.6727693 10.2714487,11.5394931 L10.7076965,13.7272953 L12.2307959,13.7272953 L12.2307959,15 L3.76920407,15 Z M9.07458072,12.0303392 L6.92534491,12.0303392 L6.58689215,13.7272953 L9.41310785,13.7272953 L9.07458072,12.0303392 Z M8,2.27270467 C5.66337941,2.27270467 3.76920407,4.17210435 3.76920407,6.51516959 C3.76920407,8.85823483 5.66337941,10.7576345 8,10.7576345 C10.3366206,10.7576345 12.2307959,8.85823483 12.2307959,6.51516959 C12.2307959,4.17210435 10.3366206,2.27270467 8,2.27270467 Z M8,3.54540935 C9.63564433,3.54540935 10.9614927,4.87503884 10.9614927,6.51516959 C10.9614927,8.1553252 9.63564433,9.48483041 8,9.48483041 C6.36438046,9.48483041 5.03840815,8.1553252 5.03840815,6.51516959 C5.03840815,4.87503884 6.36438046,3.54540935 8,3.54540935 Z M8,4.81823831 C7.06535672,4.81823831 6.30773617,5.57794847 6.30773617,6.51516959 C6.30773617,7.45239072 7.06535672,8.21212573 8,8.21212573 C8.93464328,8.21212573 9.69228862,7.45239072 9.69228862,6.51516959 C9.69228862,5.57794847 8.93464328,4.81823831 8,4.81823831 Z" id="视频模式" fill="#FFFFFF" mask="url(#mask-2)"></path>
                    </g>
                </g>
            </g>
        </g>
    </g>
</svg>