<?xml version="1.0" encoding="utf-8"?>
<!-- Generator: Adobe Illustrator 24.2.3, SVG Export Plug-In . SVG Version: 6.00 Build 0)  -->
<svg version="1.1" id="图层_1" xmlns="http://www.w3.org/2000/svg" xmlns:xlink="http://www.w3.org/1999/xlink" x="0px" y="0px"
	 viewBox="0 0 605 605" style="enable-background:new 0 0 605 605;" xml:space="preserve">
<g>
	<path d="M324.4,605h-43.7c-107.9,0-195.8-87.9-195.8-195.8V195.8C84.9,87.9,172.8,0,280.6,0h43.7c107.9,0,195.8,87.9,195.8,195.8
		v213.5C520.1,517.3,432.3,605,324.4,605L324.4,605z M280.7,52.4c-79,0-143.5,64.5-143.5,143.5v213.2c0,79,64.5,143.5,143.5,143.5
		h43.7c79,0,143.5-64.5,143.5-143.5V195.9c0-79-64.5-143.5-143.5-143.5C324.4,52.4,280.7,52.4,280.7,52.4z"/>
	<path d="M189.9,50.4l144,0.1v192.2H136.2V104.1C136.2,74.4,160.2,50.4,189.9,50.4z"/>
</g>
</svg>
