<?xml version="1.0" encoding="UTF-8"?>
<svg width="32px" height="20px" viewBox="0 0 32 20" version="1.1" xmlns="http://www.w3.org/2000/svg" xmlns:xlink="http://www.w3.org/1999/xlink">
    <title>展开</title>
    <g id="页面-1" stroke="none" stroke-width="1" fill="none" fill-rule="evenodd">
        <g id="【手机端】2个信号" transform="translate(-651.000000, -36.000000)" fill="#FFFFFF">
            <g id="编组-3备份-5" transform="translate(567.000000, 10.000000)">
                <g id="展开" transform="translate(84.000000, 26.000000)">
                    <path d="M26.2105876,11.59809 C26.6388667,11.322178 27.1751661,11.3258575 27.6001639,11.6076792 C28.0249535,11.8892779 28.2670877,12.401686 28.2269837,12.9350566 C28.1871402,13.4681483 27.8719855,13.9328893 27.4105295,14.1384993 L16.7439163,19.8472978 C16.3665223,20.0509007 15.9213683,20.0509007 15.5439744,19.8472978 L4.87730904,14.1384993 C4.27897871,13.7529806 4.05981314,12.9387361 4.37496781,12.2714515 C4.69012248,11.6043899 5.43272293,11.3106375 6.07745928,11.59809 L16.1439193,16.9787378 L26.2105876,11.59809 Z" id="路径" opacity="0.5"></path>
                    <path d="M29.3289884,0.270385687 C29.8959736,-0.0946641888 30.6059635,-0.0897191137 31.1686048,0.283080507 C31.7309703,0.656101548 32.0515242,1.33453634 31.9984318,2.04027975 C31.9456842,2.74639219 31.5284608,3.36135288 30.9175537,3.63377486 L16.7963605,11.1915472 C16.2967405,11.4610907 15.7074151,11.4610907 15.2077952,11.1915472 L1.08653297,3.63377486 C0.475901685,3.36135288 0.0584714902,2.74639219 0.00565491781,2.04027975 C-0.0471616546,1.33453634 0.273116386,0.656101548 0.83575768,0.283080507 C1.39812317,-0.0897191137 2.10838885,-0.0946641888 2.67537407,0.270385687 L16.0020433,7.39358192 L29.3289884,0.270385687 Z" id="路径"></path>
                </g>
            </g>
        </g>
    </g>
</svg>