<?xml version="1.0" encoding="UTF-8"?>
<svg width="16px" height="16px" viewBox="0 0 16 16" version="1.1" xmlns="http://www.w3.org/2000/svg" xmlns:xlink="http://www.w3.org/1999/xlink">
    <title>鸟瞰图</title>
    <defs>
        <polygon id="path-1" points="0 0 16 0 16 16.0013423 0 16.0013423"></polygon>
    </defs>
    <g id="页面-1" stroke="none" stroke-width="1" fill="none" fill-rule="evenodd">
        <g id="鸟瞰图" transform="translate(-913.000000, -147.000000)">
            <g id="【黑】画面弹窗" transform="translate(900.000000, 57.000000)">
                <g id="控制备份-3" transform="translate(3.000000, 79.000000)">
                    <g id="鸟瞰图" transform="translate(10.000000, 11.000000)">
                        <mask id="mask-2" fill="white">
                            <use xlink:href="#path-1"></use>
                        </mask>
                        <g id="Clip-2"></g>
                        <path d="M9.61886785,12.762063 L10.4287045,13.5718772 L7.99932886,16.0013423 L5.56986379,13.5718772 L6.37967802,12.762063 L7.99818793,14.3828324 L9.61886785,12.762063 Z M7.99932886,5.13716048 C9.58076974,5.13716048 10.8628395,6.41920789 10.8628395,8.00067114 C10.8628395,9.58211201 9.58076974,10.8641818 7.99932886,10.8641818 C6.41786562,10.8641818 5.13581821,9.58211201 5.13581821,8.00067114 C5.13581821,6.41920789 6.41786562,5.13716048 7.99932886,5.13716048 Z M2.42803332,5.57120606 L3.23784756,6.38102029 L1.61942713,8.00067114 L3.23898849,9.62021012 L2.42917425,10.4300467 L-0.00134227062,8.00067114 L2.42803332,5.57120606 Z M13.5705349,5.57120606 L16,8.00067114 L13.5705349,10.4300467 L12.7607207,9.62021012 L14.3814901,8.00181207 L12.7607207,6.38102029 L13.5705349,5.57120606 Z M7.99932886,6.28254237 C7.05038828,6.28254237 6.2812001,7.05173055 6.2812001,8.00067114 C6.2812001,8.94952224 7.05038828,9.7187999 7.99932886,9.7187999 C8.94817996,9.7187999 9.71745763,8.94952224 9.71745763,8.00067114 C9.71745763,7.05173055 8.94817996,6.28254237 7.99932886,6.28254237 Z M7.99932886,0 L10.4287045,2.42937559 L9.61886785,3.23918983 L8.00046979,1.61842043 L6.37967802,3.23918983 L5.56986379,2.42937559 L7.99932886,0 Z" id="Fill-1" fill="#FFFFFF" mask="url(#mask-2)"></path>
                    </g>
                </g>
            </g>
        </g>
    </g>
</svg>