<?xml version="1.0" encoding="utf-8"?>
<!-- Generator: Adobe Illustrator 24.2.3, SVG Export Plug-In . SVG Version: 6.00 Build 0)  -->
<svg version="1.1" id="图层_1" xmlns="http://www.w3.org/2000/svg" xmlns:xlink="http://www.w3.org/1999/xlink" x="0px" y="0px"
	 viewBox="0 0 614.4 614.4" style="enable-background:new 0 0 614.4 614.4;" xml:space="preserve">
<style type="text/css">
	.resolution-content{fill:#FFF;}
	.resolution-rect{fill:none;}
</style>
<g>
	<path class="resolution-content" d="M186.3,282.9h48.2v48.2h-48.2V282.9z M186.3,379.3h48.2v48.2h-48.2V379.3z M234.6,234.8h48.2V283h-48.2
		L234.6,234.8L234.6,234.8z M234.6,331.1h48.2v48.2h-48.2L234.6,331.1L234.6,331.1z M282.8,186.6H331v48.2h-48.2V186.6z
		 M282.8,282.9H331v48.2h-48.2V282.9z M282.8,379.3H331v48.2h-48.2V379.3z M331,234.8h48.2V283H331V234.8z"/>
	<rect y="0" class="resolution-rect" width="614.4" height="614.4"/>
	<path class="resolution-content" d="M331,331.1h48.2v48.2H331V331.1z M379.2,282.9h48.2v48.2h-48.2V282.9z M379.2,379.3h48.2v48.2h-48.2V379.3z
		 M427.4,331.1h48.2v48.2h-48.2V331.1z M475.6,379.3h48.2v48.2h-48.2L475.6,379.3L475.6,379.3z M48.1,48.6h131.6V0.4H-0.1v179.7
		h48.2C48.1,180.1,48.1,48.6,48.1,48.6z M565.6,0.4H434v48.2h131.6v131.5h48.2V0.4H565.6z M565.6,565.5H434v48.2h179.9V434h-48.2
		v131.5H565.6z M48.1,434H-0.1v179.7h179.9v-48.2H48.1V434z"/>
	<path class="resolution-content" d="M89.9,379.3h48.2v48.2H89.9V379.3z M138.1,331.1h48.2v48.2h-48.2V331.1z"/>
</g>
</svg>
