<?xml version="1.0" encoding="UTF-8"?>
<svg width="16px" height="14px" viewBox="0 0 16 14" version="1.1" xmlns="http://www.w3.org/2000/svg" xmlns:xlink="http://www.w3.org/1999/xlink">
    <title>4格信号</title>
    <defs>
        <polygon id="path-1" points="0 0 16 0 16 13.707432 0 13.707432"></polygon>
    </defs>
    <g id="页面-1" stroke="none" stroke-width="1" fill="none" fill-rule="evenodd">
        <g id="经过滚动条" transform="translate(-921.000000, -19.000000)">
            <g id="编组-3备份-3" transform="translate(910.000000, 10.000000)">
                <g id="4格信号" transform="translate(11.000000, 9.000000)">
                    <mask id="mask-2" fill="white">
                        <use xlink:href="#path-1"></use>
                    </mask>
                    <g id="Clip-2"></g>
                    <path d="M-6.82121026e-13,9.74706206 C-6.82121026e-13,9.41051221 0.260042609,9.13740078 0.582198555,9.13740078 L2.32731572,9.13740078 C2.64884845,9.13740078 2.90960619,9.40966637 2.90960619,9.74706206 L2.90960619,13.0969244 C2.90960619,13.433571 2.64884845,13.7065861 2.32731572,13.7065861 L0.582198555,13.7065861 C0.427733585,13.7067549 0.279500764,13.642664 0.170322744,13.5282573 C0.0610523958,13.4139232 -0.000184239864,13.2587226 -6.82121026e-13,13.0969244 L-6.82121026e-13,9.74706206 Z" id="Fill-1" fill="#66C455" mask="url(#mask-2)"></path>
                    <path d="M4.36402743,6.70068904 C4.36402743,6.36488837 4.62397809,6.09189777 4.94541849,6.09189777 L6.69136661,6.09189777 C7.01197606,6.09189777 7.27282612,6.36413919 7.27282612,6.70068904 L7.27282612,13.0969244 C7.27282612,13.433571 7.01278393,13.7065857 6.69053566,13.7065857 L4.94541849,13.7065857 C4.79104585,13.7065857 4.64309001,13.6422773 4.53400432,13.5279673 C4.42498787,13.4136332 4.36377432,13.2585293 4.36402743,13.0969244 L4.36402743,6.70068904 Z" id="路径" fill="#66C455" mask="url(#mask-2)"></path>
                    <path d="M8.72717849,3.65516186 C8.72717849,3.31863619 8.98719802,3.0463706 9.30944629,3.0463706 L11.0545865,3.0463706 C11.3760039,3.0463706 11.6367616,3.31863619 11.6367616,3.65516186 L11.6367616,13.0977703 C11.6367616,13.4343201 11.3760039,13.707432 11.0545865,13.707432 L9.30944629,13.707432 C9.15491208,13.7076249 9.00677159,13.6434131 8.89750124,13.5291032 C8.78830014,13.4146723 8.72699425,13.2594959 8.72717849,13.0977703 L8.72717849,3.65516186 Z" id="路径" fill="#66C455" mask="url(#mask-2)"></path>
                    <path d="M13.0912063,0.608813014 C13.0912063,0.273012347 13.3511566,-2.41670136e-06 13.6726662,-2.41670136e-06 L15.418522,-2.41670136e-06 C15.7392469,-2.41670136e-06 16.0000046,0.272263169 16.0000046,0.609562191 L16.0000046,13.0969244 C16.0000046,13.433571 15.7399624,13.7065857 15.418522,13.7065857 L13.6726662,13.7065857 C13.5183167,13.7065857 13.3702685,13.6422773 13.2612521,13.5279673 C13.1521664,13.4136332 13.0910221,13.2585293 13.0912063,13.0969244 L13.0912063,0.608813014 Z" id="路径" fill="#66C455" mask="url(#mask-2)"></path>
                </g>
            </g>
        </g>
    </g>
</svg>