<?xml version="1.0" encoding="UTF-8"?>
<svg width="14px" height="14px" viewBox="0 0 14 14" version="1.1" xmlns="http://www.w3.org/2000/svg" xmlns:xlink="http://www.w3.org/1999/xlink">
    <title>右侧用户模式</title>
    <defs>
        <polygon id="path-1" points="0 0 14 0 14 14 0 14"></polygon>
    </defs>
    <g id="页面-1" stroke="none" stroke-width="1" fill="none" fill-rule="evenodd">
        <g id="功能菜单" transform="translate(-1415.000000, -116.000000)">
            <g id="编组-5备份-3" transform="translate(1404.000000, 108.000000)">
                <g id="编组-9" transform="translate(5.000000, 4.000000)">
                    <g id="右侧用户模式" transform="translate(6.000000, 4.000000)">
                        <mask id="mask-2" fill="white">
                            <use xlink:href="#path-1"></use>
                        </mask>
                        <g id="Clip-2"></g>
                        <path d="M6.62500343,2.32000005 L6.62500343,11.677854 C6.62500343,12.4068699 6.03401928,12.9978541 5.30500338,12.9978541 L2.32000005,12.9978541 C1.59098415,12.9978541 1,12.4068699 1,11.677854 L1,2.32000005 C1,1.59098415 1.59098415,1 2.32000005,1 L5.30500338,1 C6.03401928,1 6.62500343,1.59098415 6.62500343,2.32000005 Z M10.1874983,1 C11.7407683,1 13,2.25898457 13,3.81199877 C13,5.364991 11.7407683,6.62399754 10.1874983,6.62399754 C8.63420632,6.62399754 7.37499657,5.364991 7.37499657,3.81199877 C7.37499657,2.25898457 8.63420632,1 10.1874983,1 Z M10.1874983,7.37600246 C11.7407683,7.37600246 13,8.63498704 13,10.1880012 C13,11.7409935 11.7407683,13 10.1874983,13 C8.63420632,13 7.37499657,11.7409935 7.37499657,10.1880012 C7.37499657,8.63498704 8.63420632,7.37600246 10.1874983,7.37600246 Z M2.12497871,11.8944587 L5.50002472,11.8944587 L5.50002472,2.12477754 L2.12497871,2.12477754 L2.12497871,11.8944587 Z M10.1874983,2.12477754 C9.58461217,2.12477754 9.02749513,2.4463999 8.72605208,2.96842111 C8.42460902,3.49044232 8.42460902,4.13353325 8.72605208,4.65555446 C9.02749513,5.17757567 9.58461217,5.49919803 10.1874983,5.49919803 C11.1194471,5.49919803 11.8750213,4.74378092 11.8750213,3.81199877 C11.8750213,2.88021661 11.1194471,2.12477754 10.1874983,2.12477754 Z M10.1874983,8.49865881 C9.58461217,8.49865881 9.02749513,8.82028117 8.72605208,9.34230238 C8.42460902,9.86432359 8.42460902,10.5074145 8.72605208,11.0294357 C9.02749513,11.5514569 9.58461217,11.8730793 10.1874983,11.8730793 C11.1194471,11.8730793 11.8750213,11.1176622 11.8750213,10.18588 C11.8750213,9.25409788 11.1194471,8.49865881 10.1874983,8.49865881 Z" fill="#FFFFFF" mask="url(#mask-2)"></path>
                    </g>
                </g>
            </g>
        </g>
    </g>
</svg>