<?xml version="1.0" encoding="UTF-8"?>
<svg width="14px" height="14px" viewBox="0 0 14 14" version="1.1" xmlns="http://www.w3.org/2000/svg" xmlns:xlink="http://www.w3.org/1999/xlink">
    <title>开启视频</title>
    <defs>
        <polygon id="path-1" points="0 0 14 0 14 14 0 14"></polygon>
        <polygon id="path-3" points="1.97835933e-12 1.21296688e-18 4.35045818 1.21296688e-18 4.35045818 5.59382242 1.97835933e-12 5.59382242"></polygon>
    </defs>
    <g id="页面-1" stroke="none" stroke-width="1" fill="none" fill-rule="evenodd">
        <g id="功能菜单" transform="translate(-1537.000000, -116.000000)">
            <g id="编组-5备份-3" transform="translate(1404.000000, 108.000000)">
                <g id="编组-9备份-3" transform="translate(125.000000, 4.000000)">
                    <g id="开启视频" transform="translate(8.000000, 4.000000)">
                        <mask id="mask-2" fill="white">
                            <use xlink:href="#path-1"></use>
                        </mask>
                        <g id="Clip-2"></g>
                        <g mask="url(#mask-2)">
                            <g transform="translate(1.000000, 3.000000)">
                                <g id="编组" stroke-width="1" fill="none" transform="translate(7.649542, 1.544074)">
                                    <mask id="mask-4" fill="white">
                                        <use xlink:href="#path-3"></use>
                                    </mask>
                                    <g id="Clip-2"></g>
                                    <path d="M3.48511229,4.61049174 L3.48511229,0.957140096 L0.931728213,2.7141919 L3.48511229,4.61049174 Z M3.00370599,0.153530307 C3.25623928,-0.0257973963 3.5876131,-0.0499123687 3.86349813,0.0911074429 C4.13936692,0.232062298 4.31393658,0.514719005 4.31656937,0.824527384 L4.31656937,4.76454525 C4.31913308,5.08172615 4.17514152,5.36377714 3.89146175,5.50580377 C3.60784694,5.64784664 3.26815873,5.61611556 3.01577159,5.42404021 L0.327691049,3.37748289 C0.117281825,3.2172523 -0.00431609646,2.96648906 0.000117161092,2.70203632 C0.00456665768,2.43764853 0.134478967,2.19107496 0.350149639,2.03802203 L3.00370599,0.153530307 Z" id="Fill-1" fill="#FFFFFF" mask="url(#mask-4)"></path>
                                </g>
                                <path d="M1.43672252,1.02357107 C1.20708628,1.02357107 1.02097065,1.2096867 1.02097065,1.43932294 L1.02097065,7.08484077 C1.02097065,7.31447701 1.20708628,7.50059264 1.43672252,7.50059264 L6.98751895,7.50059264 C7.2171552,7.50059264 7.40327082,7.31447701 7.40327082,7.08484077 L7.40327082,1.43932294 C7.40327082,1.2096867 7.2171552,1.02357107 6.98751895,1.02357107 L1.43672252,1.02357107 Z M1.24717441,0 L7.17530042,0 C7.86407925,0 8.42247483,0.558346866 8.42247483,1.24717441 L8.42247483,7.26935693 C8.42247483,7.95818448 7.86407925,8.51653134 7.17530042,8.51653134 L1.24717441,8.51653134 C0.558346866,8.51653134 0,7.95818448 0,7.26935693 L0,1.24717441 C0,0.558346866 0.558346866,0 1.24717441,0 Z" id="Fill-3" fill="#FFFFFF"></path>
                            </g>
                        </g>
                    </g>
                </g>
            </g>
        </g>
    </g>
</svg>