<?xml version="1.0" encoding="UTF-8"?>
<svg width="16px" height="14px" viewBox="0 0 16 14" version="1.1" xmlns="http://www.w3.org/2000/svg" xmlns:xlink="http://www.w3.org/1999/xlink">
    <title>有声音</title>
    <g id="页面-1" stroke="none" stroke-width="1" fill="none" fill-rule="evenodd">
        <g id="经过滚动条" transform="translate(-983.000000, -19.000000)" fill="#66C455">
            <g id="编组-3备份-3" transform="translate(910.000000, 10.000000)">
                <path d="M84.3003057,12.583659 C85.5420591,13.3342819 86.3035062,14.7058855 86.3008389,16.1871716 C86.3034002,17.6500231 85.5605935,19.0073854 84.3432261,19.7641895 L83.7150945,18.5233172 C84.4841936,18.0098678 84.9474483,17.1301202 84.9451712,16.1871716 C84.9476601,15.2262513 84.4668242,14.3322351 83.674054,13.8235782 L84.3003057,12.583659 Z M81.3820607,10.8971946 L78.603883,13.9053772 L74.3556342,13.8324007 L74.3556342,18.4828806 L78.5107872,18.4828806 L81.3820607,21.1783536 L81.3820607,10.8971946 Z M85.4422644,10.3200542 C87.4025445,11.3456459 88.7938707,13.3565288 89,15.7187335 L89,16.9390743 C88.7997753,19.2367166 87.478059,21.202071 85.6017399,22.2518157 L84.976309,21.0143199 C86.6388204,20.0754287 87.6716643,18.2794179 87.6709494,16.3289311 C87.6714525,14.312221 86.5679924,12.4669783 84.8177603,11.5575227 L85.4422644,10.3200542 Z M82.7376949,10.0518929 L82.7376949,21.948337 C82.7376949,22.8987194 81.5966893,23.3597237 80.9572782,22.6678088 L77.9852569,19.8775753 L74.3556342,19.8775753 C73.6069229,19.8775753 73,19.2534086 73,18.4834252 L73,13.8324007 C72.9998941,13.0943309 73.5592365,12.484106 74.2756979,12.4405924 L74.3669137,12.4382506 L78.030878,12.5010158 L80.9577018,9.33242116 C81.5966893,8.63998885 82.7381185,9.10151055 82.7381185,10.0518929 L82.7376949,10.0518929 Z" id="有声音"></path>
            </g>
        </g>
    </g>
</svg>